<svg width="101" height="97" viewBox="0 0 101 97" fill="none" xmlns="http://www.w3.org/2000/svg">
<path d="M1.46484 71.2562C2.27356 71.2562 2.92969 70.6009 2.92969 69.7914V27.1271H89.4783V43.2289C89.4783 44.0384 90.1344 44.6937 90.9431 44.6937C91.7526 44.6937 92.408 44.0384 92.408 43.2289V14.2792C92.408 9.36813 88.4124 5.37262 83.5022 5.37262H79.6608V3.55835C79.6608 1.59607 78.0647 0 76.1024 0H73.381C71.4195 0 69.8234 1.59607 69.8234 3.55835V5.37262H60.1082V3.55835C60.1082 1.59607 58.5121 0 56.5498 0H53.8284C51.8669 0 50.2708 1.59607 50.2708 3.55835V5.37262H40.5548V3.55835C40.5548 1.59607 38.9587 0 36.9964 0H34.2758C32.3135 0 30.7175 1.59607 30.7175 3.55835V5.37262H21.0022V3.55835C21.0022 1.59607 19.4061 0 17.4438 0H14.7232C12.7609 0 11.1649 1.59607 11.1649 3.55835V5.37262H8.90655C3.99551 5.37262 0 9.36813 0 14.2792V69.7914C0 70.6009 0.656128 71.2562 1.46484 71.2562V71.2562ZM72.7531 3.55835C72.7531 3.21197 73.0354 2.92969 73.3818 2.92969H76.1032C76.4496 2.92969 76.7311 3.21197 76.7311 3.55835V10.675C76.7311 11.0214 76.4496 11.3037 76.1032 11.3037H73.3818C73.0354 11.3037 72.7531 11.0222 72.7531 10.675V3.55835ZM53.2005 3.55835C53.2005 3.21197 53.482 2.92969 53.8284 2.92969H56.5498C56.8962 2.92969 57.1785 3.21197 57.1785 3.55835V10.675C57.1785 11.0214 56.8962 11.3037 56.5498 11.3037H53.8284C53.482 11.3037 53.2005 11.0222 53.2005 10.675V3.55835ZM33.6471 3.55835C33.6471 3.21197 33.9294 2.92969 34.2758 2.92969H36.9972C37.3436 2.92969 37.6259 3.21197 37.6259 3.55835V10.675C37.6259 11.0214 37.3436 11.3037 36.9972 11.3037H34.2758C33.9294 11.3037 33.6471 11.0222 33.6471 10.675V3.55835ZM14.0945 3.55835C14.0945 3.21197 14.3768 2.92969 14.7232 2.92969H17.4446C17.791 2.92969 18.0725 3.21197 18.0725 3.55835V10.675C18.0725 11.0214 17.791 11.3037 17.4446 11.3037H14.7232C14.3768 11.3037 14.0945 11.0222 14.0945 10.675V3.55835ZM8.90655 8.3023H11.1649V10.675C11.1649 12.6373 12.7609 14.2334 14.7232 14.2334H17.4446C19.4061 14.2334 21.0022 12.6373 21.0022 10.675V8.3023H30.7182V10.675C30.7182 12.6373 32.3143 14.2334 34.2758 14.2334H36.9972C38.9595 14.2334 40.5556 12.6373 40.5556 10.675V8.3023H50.2708V10.675C50.2708 12.6373 51.8669 14.2334 53.8292 14.2334H56.5506C58.5121 14.2334 60.1082 12.6373 60.1082 10.675V8.3023H69.8234V10.675C69.8234 12.6373 71.4195 14.2334 73.3818 14.2334H76.1032C78.0647 14.2334 79.6608 12.6373 79.6608 10.675V8.3023H83.5022C86.7981 8.3023 89.479 10.9833 89.479 14.2792V24.1974H2.92969V14.2792C2.92969 10.9833 5.61066 8.3023 8.90655 8.3023V8.3023Z" fill="white"/>
<path d="M16.584 84.8792H3.81088C3.32489 84.8792 2.92969 84.484 2.92969 83.998V76.467C2.92969 75.6576 2.27356 75.0022 1.46484 75.0022C0.656128 75.0022 0 75.6576 0 76.467V83.998C0 86.0991 1.70975 87.8089 3.81088 87.8089H16.584C17.3927 87.8089 18.0489 87.1528 18.0489 86.3441C18.0489 85.5346 17.3927 84.8792 16.584 84.8792V84.8792Z" fill="white"/>
<path d="M16.5362 31.3987H11.4443C10.6356 31.3987 9.97949 32.0548 9.97949 32.8635C9.97949 33.673 10.6356 34.3284 11.4443 34.3284H16.5362C17.3449 34.3284 18.001 33.673 18.001 32.8635C18.001 32.0548 17.3449 31.3987 16.5362 31.3987Z" fill="white"/>
<path d="M27.0908 34.3284H32.1827C32.9914 34.3284 33.6475 33.673 33.6475 32.8635C33.6475 32.0548 32.9914 31.3987 32.1827 31.3987H27.0908C26.2821 31.3987 25.626 32.0548 25.626 32.8635C25.626 33.673 26.2821 34.3284 27.0908 34.3284Z" fill="white"/>
<path d="M42.7402 34.3284H47.8313C48.64 34.3284 49.2962 33.673 49.2962 32.8635C49.2962 32.0548 48.64 31.3987 47.8313 31.3987H42.7402C41.9308 31.3987 41.2754 32.0548 41.2754 32.8635C41.2754 33.673 41.9308 34.3284 42.7402 34.3284Z" fill="white"/>
<path d="M58.3857 34.3284H63.4776C64.2863 34.3284 64.9424 33.673 64.9424 32.8635C64.9424 32.0548 64.2863 31.3987 63.4776 31.3987H58.3857C57.577 31.3987 56.9209 32.0548 56.9209 32.8635C56.9209 33.673 57.577 34.3284 58.3857 34.3284Z" fill="white"/>
<path d="M79.1233 31.3987H74.0322C73.2227 31.3987 72.5674 32.0548 72.5674 32.8635C72.5674 33.673 73.2227 34.3284 74.0322 34.3284H79.1233C79.932 34.3284 80.5882 33.673 80.5882 32.8635C80.5882 32.0548 79.932 31.3987 79.1233 31.3987V31.3987Z" fill="white"/>
<path d="M16.5362 38.7649H11.4443C10.6356 38.7649 9.97949 39.4203 9.97949 40.2297C9.97949 41.0392 10.6356 41.6946 11.4443 41.6946H16.5362C17.3449 41.6946 18.001 41.0392 18.001 40.2297C18.001 39.4203 17.3449 38.7649 16.5362 38.7649Z" fill="white"/>
<path d="M27.0908 41.6946H32.1827C32.9914 41.6946 33.6475 41.0392 33.6475 40.2297C33.6475 39.4203 32.9914 38.7649 32.1827 38.7649H27.0908C26.2821 38.7649 25.626 39.4203 25.626 40.2297C25.626 41.0392 26.2821 41.6946 27.0908 41.6946Z" fill="white"/>
<path d="M42.7402 41.6946H47.8313C48.64 41.6946 49.2962 41.0392 49.2962 40.2297C49.2962 39.4203 48.64 38.7649 47.8313 38.7649H42.7402C41.9308 38.7649 41.2754 39.4203 41.2754 40.2297C41.2754 41.0392 41.9308 41.6946 42.7402 41.6946Z" fill="white"/>
<path d="M58.3857 41.6946H63.4776C64.2863 41.6946 64.9424 41.0392 64.9424 40.2297C64.9424 39.4203 64.2863 38.7649 63.4776 38.7649H58.3857C57.577 38.7649 56.9209 39.4203 56.9209 40.2297C56.9209 41.0392 57.577 41.6946 58.3857 41.6946Z" fill="white"/>
<path d="M79.1233 38.7649H74.0322C73.2227 38.7649 72.5674 39.4203 72.5674 40.2297C72.5674 41.0392 73.2227 41.6946 74.0322 41.6946H79.1233C79.932 41.6946 80.5882 41.0392 80.5882 40.2297C80.5882 39.4203 79.932 38.7649 79.1233 38.7649V38.7649Z" fill="white"/>
<path d="M27.1264 70.452L34.6581 77.9837C35.7476 79.0732 37.1957 79.6729 38.7368 79.6729C40.278 79.6729 41.7268 79.0732 42.8155 77.9837L63.4415 57.3577C65.6907 55.1085 65.6907 51.4487 63.4415 49.1996C61.1924 46.9504 57.5326 46.9504 55.2834 49.1996L38.7368 65.7462L35.2838 62.2939C33.0354 60.0447 29.3756 60.0447 27.1256 62.2939C24.8773 64.543 24.8773 68.2028 27.1264 70.452V70.452ZM29.1978 64.3653C29.7509 63.8121 30.478 63.5352 31.2051 63.5352C31.9322 63.5352 32.6592 63.8121 33.2124 64.3653L37.7007 68.8536C38.2729 69.4258 39.1999 69.4258 39.7721 68.8536L57.3548 51.2717C58.4626 50.1647 60.2631 50.1647 61.3694 51.2709C62.4764 52.378 62.4764 54.1793 61.3694 55.2863L40.7441 75.9116C40.2078 76.4479 39.4952 76.7432 38.7368 76.7432C37.9785 76.7432 37.2659 76.4479 36.7295 75.9116L29.1978 68.3798C28.0908 67.2728 28.0908 65.4723 29.1978 64.3653V64.3653Z" fill="white"/>
<path d="M92.4097 61.5935V49.9045C92.4097 49.0951 91.7544 48.4397 90.9449 48.4397C90.1362 48.4397 89.48 49.0951 89.48 49.9045V59.7251C86.809 58.3404 83.7778 57.5568 80.5674 57.5568C69.8511 57.5568 61.133 66.2749 61.133 76.9912C61.133 79.798 61.7319 82.4668 62.8069 84.8792H23.2607C22.452 84.8792 21.7959 85.5346 21.7959 86.344C21.7959 87.1528 22.452 87.8089 23.2607 87.8089H64.4297C67.9217 93.0022 73.852 96.4255 80.5674 96.4255C91.2836 96.4255 100.002 87.7074 100.002 76.9912C100.002 70.729 97.0232 65.1496 92.4097 61.5935V61.5935ZM80.5674 93.4958C71.4663 93.4958 64.0627 86.0923 64.0627 76.9912C64.0627 67.8901 71.4671 60.4865 80.5674 60.4865C89.6677 60.4865 97.0721 67.8901 97.0721 76.9912C97.0721 86.0923 89.6677 93.4958 80.5674 93.4958Z" fill="white"/>
<path d="M80.566 62.603C72.6322 62.603 66.1777 69.0583 66.1777 76.9913C66.1777 84.9251 72.6322 91.3796 80.566 91.3796C88.4998 91.3796 94.9535 84.9251 94.9535 76.9913C94.9535 69.0583 88.499 62.603 80.566 62.603V62.603ZM81.8775 88.3721C81.9744 88.176 82.0308 87.9563 82.0308 87.7228V85.9383C82.0308 85.1296 81.3747 84.4734 80.566 84.4734C79.7573 84.4734 79.1012 85.1296 79.1012 85.9383V87.7228C79.1012 87.9563 79.1569 88.176 79.2545 88.3721C73.9826 87.7686 69.7887 83.5747 69.1852 78.3028C69.3806 78.4004 69.601 78.4561 69.8345 78.4561H71.6183C72.4277 78.4561 73.0831 77.8008 73.0831 76.9913C73.0831 76.1818 72.4277 75.5265 71.6183 75.5265H69.8345C69.601 75.5265 69.3806 75.5829 69.1852 75.6798C69.7887 70.4079 73.9826 66.214 79.2545 65.6105C79.1569 65.8066 79.1012 66.0263 79.1012 66.2598V68.0443C79.1012 68.8538 79.7573 69.5092 80.566 69.5092C81.3747 69.5092 82.0308 68.8538 82.0308 68.0443V66.2598C82.0308 66.0263 81.9744 65.8066 81.8775 65.6105C87.1494 66.214 91.3433 70.4079 91.9468 75.6798C91.7507 75.5829 91.531 75.5265 91.2975 75.5265H89.513C88.7043 75.5265 88.0482 76.1818 88.0482 76.9913C88.0482 77.8008 88.7043 78.4561 89.513 78.4561H91.2975C91.531 78.4561 91.7507 78.4004 91.9468 78.3028C91.3425 83.5747 87.1494 87.7686 81.8775 88.3721V88.3721Z" fill="white"/>
<path d="M83.7952 75.5264H82.0312V74.0242C82.0312 73.2155 81.3751 72.5593 80.5664 72.5593C79.7569 72.5593 79.1016 73.2155 79.1016 74.0242V76.9912C79.1016 77.8007 79.7569 78.4561 80.5664 78.4561H83.7952C84.6039 78.4561 85.26 77.8007 85.26 76.9912C85.26 76.1818 84.6039 75.5264 83.7952 75.5264V75.5264Z" fill="white"/>
</svg>
