<svg width="57" height="101" viewBox="0 0 57 101" fill="none" xmlns="http://www.w3.org/2000/svg">
<path d="M33.334 67.1374L33.334 70.4707L36.6673 70.4707L36.6673 67.1374L33.334 67.1374Z" fill="white"/>
<path d="M40.001 67.1376L40.001 70.4709L43.3343 70.4709L43.3343 67.1376L40.001 67.1376Z" fill="white"/>
<path d="M46.667 67.1376L46.667 70.4709L50.0003 70.4709L50.0003 67.1376L46.667 67.1376Z" fill="white"/>
<path d="M26.6689 67.1374L26.6689 70.4707L30.0023 70.4707L30.0023 67.1374L26.6689 67.1374Z" fill="white"/>
<path d="M19.999 67.1376L19.999 70.4709L23.3324 70.4709L23.3324 67.1376L19.999 67.1376Z" fill="white"/>
<path d="M13.332 67.1374L13.332 70.4707L16.6654 70.4707L16.6654 67.1374L13.332 67.1374Z" fill="white"/>
<path d="M6.66699 67.1374L6.66699 70.4707L10.0003 70.4707L10.0003 67.1374L6.66699 67.1374Z" fill="white"/>
<path d="M6.66699 90.4701L6.66699 93.8035L10.0003 93.8035L10.0003 90.4701L6.66699 90.4701Z" fill="white"/>
<path d="M6.66699 7.13737L6.66699 10.4707L10.0003 10.4707L10.0003 7.13737L6.66699 7.13737Z" fill="white"/>
<path d="M46.667 7.13713L46.667 10.4705L50.0003 10.4705L50.0003 7.13713L46.667 7.13713Z" fill="white"/>
<path d="M46.667 90.4704L46.667 93.8037L50.0003 93.8037L50.0003 90.4704L46.667 90.4704Z" fill="white"/>
<path d="M20 2.13737C20 1.21695 19.2537 0.470705 18.3333 0.470705L1.66666 0.470705C0.746246 0.470705 -4.33852e-06 1.21696 -4.29829e-06 2.13737L-7.28523e-08 98.804C-3.26196e-08 99.7245 0.74625 100.471 1.66667 100.471L18.3333 100.471C19.2538 100.471 20 99.7245 20 98.804C20 94.2017 23.731 90.4707 28.3333 90.4707C32.9356 90.4707 36.6667 94.2017 36.6667 98.804C36.6667 99.7245 37.4129 100.471 38.3333 100.471L55 100.471C55.9204 100.471 56.6667 99.7245 56.6667 98.804L56.6667 2.13737C56.6667 1.21695 55.9204 0.470703 55 0.470703L38.3333 0.470704C37.4129 0.470704 36.6667 1.21695 36.6667 2.13737C36.6667 6.73966 32.9356 10.4707 28.3333 10.4707C23.731 10.4707 20 6.73966 20 2.13737ZM29.9908 13.6949C35.1179 12.959 39.1458 8.93091 39.8817 3.80404L53.3333 3.80404L53.3333 97.1374L39.8817 97.1374C38.9663 90.7595 33.054 86.3311 26.6758 87.2465C21.549 87.9824 17.5208 92.0103 16.785 97.1374L3.33333 97.1374L3.33333 3.80404L16.785 3.80404C17.7004 10.182 23.6127 14.6103 29.9908 13.6949Z" fill="white"/>
<path d="M11.666 50.4708C11.666 54.1527 14.6508 57.1375 18.3327 57.1375C22.0146 57.1375 24.9993 54.1527 24.9993 50.4708C24.9993 46.7889 22.0146 43.8041 18.3327 43.8041C14.6508 43.8041 11.666 46.7889 11.666 50.4708ZM21.666 50.4708C21.666 52.3118 20.1737 53.8041 18.3327 53.8041C16.4916 53.8041 14.9993 52.3118 14.9993 50.4708C14.9993 48.6297 16.4916 47.1375 18.3327 47.1375C20.1737 47.1375 21.666 48.6297 21.666 50.4708Z" fill="white"/>
<path d="M31.668 30.4705C31.668 34.1524 34.6528 37.1372 38.3346 37.1372C42.0165 37.1372 45.0013 34.1524 45.0013 30.4705C45.0013 26.7887 42.0165 23.8039 38.3346 23.8039C34.6528 23.8039 31.668 26.7887 31.668 30.4705ZM41.668 30.4705C41.668 32.3116 40.1757 33.8039 38.3346 33.8039C36.4936 33.8039 35.0013 32.3116 35.0013 30.4705C35.0013 28.6295 36.4936 27.1372 38.3346 27.1372C40.1757 27.1372 41.668 28.6295 41.668 30.4705Z" fill="white"/>
<path d="M13.8154 28.3164L40.4814 54.9824L42.8384 52.6254L16.1724 25.9594L13.8154 28.3164Z" fill="white"/>
</svg>
