<svg width="126" height="126" viewBox="0 0 126 126" fill="none" xmlns="http://www.w3.org/2000/svg">
<path d="M125.014 111.984L123.216 110.186C123.045 110.014 122.842 109.878 122.618 109.785C122.394 109.692 122.154 109.644 121.911 109.644C121.669 109.644 121.429 109.692 121.205 109.784C120.981 109.877 120.777 110.013 120.606 110.184C120.434 110.355 120.298 110.559 120.205 110.782C120.112 111.006 120.064 111.246 120.064 111.489C120.064 111.731 120.112 111.971 120.204 112.195C120.297 112.419 120.433 112.623 120.604 112.794L122.141 114.332L114.312 122.166L100.999 108.85L108.827 101.021L115.039 107.233C115.211 107.405 115.414 107.541 115.638 107.634C115.862 107.726 116.103 107.774 116.345 107.774C116.588 107.774 116.828 107.726 117.052 107.634C117.276 107.541 117.48 107.405 117.651 107.233C117.823 107.062 117.959 106.858 118.052 106.634C118.145 106.41 118.192 106.169 118.192 105.927C118.192 105.684 118.145 105.444 118.052 105.22C117.959 104.996 117.823 104.792 117.651 104.62L110.138 97.1059L104.917 91.8848L100.298 87.2643C99.9891 86.9555 99.6228 86.7106 99.2196 86.5435C98.8164 86.3764 98.3842 86.2904 97.9478 86.2904C97.5114 86.2904 97.0792 86.3764 96.676 86.5435C96.2728 86.7106 95.9065 86.9555 95.598 87.2643L95.3376 87.5247L88.7355 80.9175C93.5404 74.9238 96.8901 67.8972 98.5211 60.39H111.541C112.03 60.39 112.5 60.1955 112.846 59.8493C113.192 59.5031 113.386 59.0335 113.386 58.5439C113.386 58.0543 113.192 57.5847 112.846 57.2385C112.5 56.8923 112.03 56.6978 111.541 56.6978H99.1805C99.3428 55.5245 99.4632 54.3386 99.5416 53.1401H120.327C120.816 53.1401 121.286 52.9456 121.632 52.5994C121.978 52.2532 122.172 51.7836 122.172 51.294C122.172 50.8044 121.978 50.3348 121.632 49.9886C121.286 49.6424 120.816 49.4479 120.327 49.4479H99.6508C99.6508 48.2522 99.6018 47.0663 99.5038 45.8901H111.532C112.022 45.8901 112.491 45.6956 112.837 45.3494C113.184 45.0032 113.378 44.5337 113.378 44.044C113.378 43.5544 113.184 43.0849 112.837 42.7387C112.491 42.3925 112.022 42.198 111.532 42.198H99.0839C97.79 33.6829 94.2855 25.6562 88.9203 18.9192C88.6162 18.5354 88.1721 18.2882 87.6857 18.2319C87.1994 18.1755 86.7106 18.3148 86.3269 18.6189C85.9431 18.923 85.6959 19.3671 85.6396 19.8536C85.5833 20.34 85.7225 20.8289 86.0266 21.2126C92.4996 29.3426 96.0063 39.4375 95.9676 49.8301C95.9682 60.4111 92.333 70.6709 85.6711 78.8907C79.0091 87.1104 69.7252 92.7907 59.3746 94.98C49.024 97.1692 38.2355 95.7344 28.8167 90.9159C19.3978 86.0974 11.9208 78.1879 7.63814 68.5126C3.35553 58.8373 2.52753 47.9839 5.29287 37.7708C8.05821 27.5576 14.2489 18.6052 22.8278 12.4132C31.4067 6.22131 41.8526 3.16609 52.4154 3.75941C62.9783 4.35274 73.0165 8.55857 80.8482 15.6723C81.0274 15.8353 81.237 15.9614 81.465 16.0434C81.693 16.1254 81.9348 16.1616 82.1768 16.1501C82.4188 16.1386 82.6562 16.0796 82.8753 15.9763C83.0945 15.8731 83.2912 15.7276 83.4542 15.5484C83.6171 15.3691 83.7432 15.1595 83.8252 14.9315C83.9072 14.7035 83.9434 14.4616 83.9319 14.2195C83.9204 13.9775 83.8614 13.7401 83.7581 13.5209C83.6549 13.3017 83.5095 13.105 83.3303 12.942C77.6351 7.76969 70.8199 3.98639 63.4185 1.88848C56.0171 -0.209434 48.2305 -0.564984 40.6688 0.849682C33.107 2.26435 25.9755 5.41081 19.8327 10.0426C13.69 14.6744 8.70288 20.6657 5.26211 27.5472C1.82134 34.4287 0.0203324 42.0135 0.000171158 49.7074C-0.0199901 57.4014 1.74124 64.9955 5.1459 71.8949C8.55056 78.7944 13.5062 84.8117 19.6246 89.4757C25.743 94.1396 32.8579 97.3234 40.4122 98.7777V111.232C40.4122 111.722 40.6066 112.191 40.9528 112.537C41.299 112.884 41.7684 113.078 42.258 113.078C42.7475 113.078 43.217 112.884 43.5632 112.537C43.9093 112.191 44.1038 111.722 44.1038 111.232V99.3447C45.2798 99.4791 46.4655 99.5729 47.6611 99.6261V119.914C47.6611 120.404 47.8555 120.873 48.2017 121.22C48.5479 121.566 49.0174 121.76 49.5069 121.76C49.9964 121.76 50.4659 121.566 50.8121 121.22C51.1583 120.873 51.3527 120.404 51.3527 119.914V99.6472C52.5483 99.6107 53.734 99.5337 54.91 99.4161V111.232C54.91 111.722 55.1045 112.191 55.4506 112.537C55.7968 112.884 56.2663 113.078 56.7558 113.078C57.2454 113.078 57.7149 112.884 58.061 112.537C58.4072 112.191 58.6016 111.722 58.6016 111.232V98.8995C66.769 97.4361 74.4393 93.9485 80.9112 88.7555L87.5175 95.3459L87.2571 95.6063C86.9484 95.9149 86.7035 96.2813 86.5364 96.6845C86.3694 97.0878 86.2834 97.52 86.2834 97.9565C86.2834 98.393 86.3694 98.8252 86.5364 99.2284C86.7035 99.6317 86.9484 99.9981 87.2571 100.307L91.8769 104.927L97.0973 110.148L111.973 125.026C112.282 125.335 112.648 125.58 113.051 125.747C113.454 125.914 113.887 126 114.323 126C114.759 126 115.192 125.914 115.595 125.747C115.998 125.58 116.364 125.335 116.673 125.026L125.026 116.671C125.335 116.363 125.58 115.997 125.747 115.593C125.914 115.19 126 114.758 126 114.321C126 113.885 125.914 113.453 125.747 113.049C125.58 112.646 125.335 112.28 125.026 111.971L125.014 111.984ZM86.3248 83.7275L92.7379 90.1416L90.1298 92.7501L83.7167 86.336C84.6182 85.4959 85.489 84.625 86.329 83.7233L86.3248 83.7275ZM98.3909 106.242L95.7786 103.633L103.607 95.8038L106.215 98.4164L98.3909 106.242ZM97.9709 90.1458L101.016 93.1911L93.1873 101.021L90.1424 97.9754L97.9709 90.1458Z" fill="white"/>
<path d="M24.1265 83.6266C31.5449 89.1941 40.5549 92.2318 49.8295 92.292C61.0879 92.2926 71.8854 87.8201 79.8467 79.8585C87.808 71.8969 92.2809 61.0983 92.2814 49.8384C92.282 38.5784 87.8102 27.7794 79.8497 19.817C71.8892 11.8546 61.0921 7.38103 49.8337 7.38047C44.271 7.36821 38.7614 8.46262 33.6255 10.6C28.4897 12.7374 23.8302 15.8751 19.9183 19.8305C11.9693 27.7904 7.46552 38.5551 7.37757 49.8047C7.26164 60.231 11.0746 70.3188 18.0578 78.061C18.2199 78.2411 18.4159 78.3875 18.6347 78.4918C18.8534 78.5961 19.0905 78.6564 19.3325 78.669C19.5745 78.6817 19.8166 78.6466 20.045 78.5657C20.2734 78.4848 20.4837 78.3597 20.6637 78.1975C20.8438 78.0353 20.9902 77.8393 21.0945 77.6205C21.1988 77.4018 21.259 77.1646 21.2717 76.9226C21.2844 76.6806 21.2493 76.4384 21.1684 76.21C21.0875 75.9815 20.9624 75.7712 20.8002 75.5911C14.435 68.537 10.9592 59.3441 11.065 49.8426C11.1474 39.5572 15.2665 29.7159 22.5348 22.439C26.1042 18.8287 30.356 15.9646 35.0426 14.0132C39.7293 12.0619 44.7572 11.0623 49.8337 11.0726C60.0431 11.1789 69.7983 15.3098 76.9802 22.5678C84.162 29.8258 88.1905 39.6248 88.1905 49.8362C88.1905 60.0476 84.162 69.8467 76.9802 77.1047C69.7983 84.3627 60.0431 88.4936 49.8337 88.5999C41.3475 88.5456 33.103 85.7672 26.3146 80.6737C25.9232 80.4093 25.4453 80.3052 24.9794 80.3829C24.5135 80.4606 24.0952 80.7142 23.8108 81.0913C23.5263 81.4685 23.3975 81.9404 23.4507 82.4098C23.504 82.8792 23.7354 83.3102 24.0971 83.6139L24.1265 83.6266Z" fill="white"/>
<path d="M56.8348 16.8572H44.0379C43.2875 16.8583 42.5682 17.1569 42.0376 17.6876C41.5069 18.2183 41.2083 18.9378 41.2072 19.6883V26.2115H29.2713C28.5209 26.2126 27.8015 26.5113 27.2709 27.042C26.7403 27.5727 26.4417 28.2921 26.4406 29.0426V48.856H23.9669C23.4774 48.856 23.0079 49.0505 22.6617 49.3967C22.3155 49.7429 22.1211 50.2125 22.1211 50.7021C22.1211 51.1917 22.3155 51.6612 22.6617 52.0075C23.0079 52.3537 23.4774 52.5482 23.9669 52.5482H76.8848C77.3744 52.5482 77.8439 52.3537 78.19 52.0075C78.5362 51.6612 78.7307 51.1917 78.7307 50.7021C78.7307 50.2125 78.5362 49.7429 78.19 49.3967C77.8439 49.0505 77.3744 48.856 76.8848 48.856H74.4153V38.3969C74.4142 37.6464 74.1156 36.927 73.585 36.3963C73.0544 35.8656 72.335 35.567 71.5846 35.5659H59.6655V19.6883C59.6644 18.9378 59.3658 18.2183 58.8352 17.6876C58.3046 17.1569 57.5852 16.8583 56.8348 16.8572ZM30.1365 29.8995H41.2114V48.8518H30.1365V29.8995ZM44.9031 20.5451H55.9781V48.8476H44.8989L44.9031 20.5451ZM70.7405 39.2496V48.8476H59.6655V39.2538L70.7405 39.2496Z" fill="white"/>
<path d="M71.1054 68.1861H62.416L58.4682 58.1051C58.3326 57.7562 58.094 57.4569 57.7843 57.2468C57.4745 57.0368 57.1082 56.9261 56.734 56.9293C56.3597 56.9325 55.9954 57.0495 55.6892 57.2647C55.3831 57.48 55.1497 57.7834 55.0201 58.1345L49.6275 72.6805L45.8476 61.9947C45.7313 61.657 45.5194 61.3604 45.2376 61.1408C44.9559 60.9213 44.6165 60.7883 44.2607 60.7581C43.9048 60.7278 43.5478 60.8016 43.2331 60.9704C42.9184 61.1392 42.6595 61.3958 42.4878 61.709L38.8675 68.1945H30.2032C29.7137 68.1945 29.2442 68.389 28.898 68.7352C28.5519 69.0814 28.3574 69.551 28.3574 70.0406C28.3574 70.5302 28.5519 70.9998 28.898 71.346C29.2442 71.6922 29.7137 71.8867 30.2032 71.8867H39.9469C40.2754 71.8867 40.5981 71.7992 40.8815 71.6331C41.165 71.467 41.3991 71.2282 41.5596 70.9416L43.7141 67.0772L47.8216 78.7208C47.9477 79.0786 48.1812 79.3888 48.4901 79.609C48.799 79.8293 49.1683 79.9489 49.5477 79.9515V79.9515C49.9248 79.9516 50.2928 79.8361 50.6022 79.6206C50.9116 79.405 51.1475 79.0997 51.278 78.7459L56.763 63.9563L59.4047 70.7106C59.5399 71.0561 59.7762 71.3527 60.0826 71.5618C60.3891 71.7709 60.7515 71.8826 61.1224 71.8824H71.0719C71.5614 71.8824 72.0309 71.688 72.377 71.3417C72.7232 70.9955 72.9177 70.526 72.9177 70.0364C72.9177 69.5467 72.7232 69.0772 72.377 68.731C72.0309 68.3848 71.5614 68.1903 71.0719 68.1903L71.1054 68.1861Z" fill="white"/>
</svg>
