<svg width="420" height="190" viewBox="0 0 420 190" fill="none" xmlns="http://www.w3.org/2000/svg">
<rect width="414" height="188" transform="translate(3 1)" fill="white"/>
<line opacity="0.1" x1="3" y1="1.39963" x2="416.984" y2="1.39963" stroke="#1D2125" stroke-width="1.20074" stroke-dasharray="4.8 7.2"/>
<line opacity="0.1" x1="3" y1="38.0905" x2="416.984" y2="38.0905" stroke="#1D2125" stroke-width="1.20074" stroke-dasharray="4.8 7.2"/>
<line opacity="0.1" x1="3" y1="75.7817" x2="416.984" y2="75.7817" stroke="#1D2125" stroke-width="1.20074" stroke-dasharray="4.8 7.2"/>
<line opacity="0.1" x1="3" y1="113.473" x2="416.984" y2="113.473" stroke="#1D2125" stroke-width="1.20074" stroke-dasharray="4.8 7.2"/>
<line opacity="0.1" x1="3" y1="151.164" x2="416.984" y2="151.164" stroke="#1D2125" stroke-width="1.20074" stroke-dasharray="4.8 7.2"/>
<line opacity="0.1" x1="3" y1="188.855" x2="416.984" y2="188.855" stroke="#1D2125" stroke-width="1.20074" stroke-dasharray="4.8 7.2"/>
<path d="M417 133.878C406.699 128.023 396.658 122.569 386.061 122.569C377.793 122.569 369.863 125.889 361.885 129.229C355.92 131.727 349.928 134.235 343.747 135.377C330.33 138.045 315.881 132.708 302.465 125.238C288.016 117.767 273.567 107.628 260.151 92.686C256.943 89.3694 253.787 85.8162 250.659 82.2947C239.695 69.9518 229.078 58 217.837 58C209.708 58 201.201 65.2471 192.544 72.6214C186.913 77.419 181.217 82.2705 175.522 85.2152C167.18 89.8603 158.439 89.7606 149.795 89.6619C144.537 89.6019 139.315 89.5423 134.24 90.5515C120.904 92.5217 108.446 101.312 95.2453 110.626C94.1444 111.403 93.0384 112.184 91.9263 112.964C78.5096 122.569 64.0609 132.708 49.6122 138.045C36.1955 142.847 21.7468 142.847 8.3301 130.04C6.53415 128.515 4.75415 126.791 3 124.919" stroke="#ED9013" stroke-width="5" stroke-linecap="round"/>
<path d="M417 131.809C416.099 131.68 415.201 131.524 414.307 131.34C406.152 129.786 398.246 126.369 390.376 122.967C379.848 118.418 369.385 113.896 358.477 113.896C343.852 113.896 330.028 122.023 315.777 130.403C311.451 132.946 307.086 135.513 302.646 137.882C284.944 148.058 265.88 155.327 248.178 148.058C230.78 142.088 214.516 124.617 197.317 106.14C195.67 104.37 194.014 102.591 192.347 100.812C190.929 99.298 189.518 97.7836 188.113 96.2761C170.641 77.5242 154.162 59.8381 136.517 56.4742C128.359 54.7993 119.911 56.8295 111.441 58.8652C101.532 61.2466 91.5921 63.6354 82.0481 60.1085C72.2043 56.3554 62.3605 47.3698 52.7042 38.5553C43.6595 30.2992 34.7793 22.1931 26.2176 18.6777C18.3089 15.9639 10.6345 16.7526 3 19.5391" stroke="#C83B53" stroke-width="5" stroke-linecap="round"/>
<path d="M3 96.184L14.5012 109.763C15.9279 111.377 17.5063 113.2 19.2207 115.18C31.3268 129.164 50.2151 150.981 70.364 162.38C91.7234 175.959 114.726 175.959 136.085 170.867C159.087 165.209 182.09 154.459 203.449 144.275C205.22 143.448 206.98 142.62 208.733 141.797C229.749 131.921 249.581 122.601 270.813 120.512C278.892 119.442 287.206 119.506 295.577 119.569C309.338 119.674 323.254 119.78 336.534 114.855C345.601 111.733 354.667 106.589 363.633 101.502C377.414 93.6837 390.958 86 403.898 86C408.318 86 412.678 86.773 417 88.1343" stroke="#A82CD0" stroke-width="5" stroke-linecap="round"/>
<circle opacity="0.2" cx="136" cy="57" r="10" fill="#ED9013"/>
<circle cx="136" cy="57" r="5" fill="#ED9013"/>
<path d="M107.579 34.234C107.159 34.186 106.751 34.078 106.355 33.91C105.959 33.742 105.587 33.52 105.239 33.244C104.903 32.968 104.603 32.632 104.339 32.236C104.087 31.84 103.889 31.384 103.745 30.868L105.527 30.13C105.659 30.658 105.905 31.126 106.265 31.534C106.625 31.93 107.063 32.194 107.579 32.326V28.438L107.453 28.384C106.985 28.204 106.553 28 106.157 27.772C105.761 27.532 105.419 27.262 105.131 26.962C104.843 26.662 104.621 26.332 104.465 25.972C104.309 25.612 104.231 25.204 104.231 24.748C104.231 24.34 104.303 23.95 104.447 23.578C104.603 23.206 104.825 22.87 105.113 22.57C105.401 22.27 105.749 22.024 106.157 21.832C106.577 21.628 107.051 21.496 107.579 21.436V19.888H109.073V21.472C109.541 21.544 109.949 21.67 110.297 21.85C110.645 22.03 110.945 22.24 111.197 22.48C111.449 22.708 111.653 22.954 111.809 23.218C111.965 23.47 112.085 23.71 112.169 23.938L110.405 24.712C110.321 24.46 110.171 24.208 109.955 23.956C109.751 23.704 109.457 23.512 109.073 23.38V27.016C109.541 27.22 109.979 27.436 110.387 27.664C110.795 27.88 111.149 28.132 111.449 28.42C111.749 28.696 111.983 29.02 112.151 29.392C112.331 29.752 112.421 30.172 112.421 30.652C112.421 31.192 112.325 31.666 112.133 32.074C111.953 32.482 111.707 32.836 111.395 33.136C111.095 33.436 110.741 33.676 110.333 33.856C109.937 34.024 109.517 34.144 109.073 34.216V35.8H107.579V34.234ZM110.423 30.688C110.423 30.304 110.309 29.992 110.081 29.752C109.865 29.512 109.529 29.284 109.073 29.068V32.29C109.469 32.182 109.793 31.996 110.045 31.732C110.297 31.456 110.423 31.108 110.423 30.688ZM106.157 24.766C106.157 25.114 106.271 25.414 106.499 25.666C106.739 25.906 107.099 26.146 107.579 26.386V23.29C107.147 23.386 106.799 23.566 106.535 23.83C106.283 24.082 106.157 24.394 106.157 24.766Z" fill="#C83B53"/>
<path d="M120.856 34V24.1L118.57 25.09L117.814 23.38L121.432 21.688H122.854V34H120.856ZM125.321 34V32.11C126.017 31.426 126.659 30.784 127.247 30.184C127.499 29.932 127.751 29.674 128.003 29.41C128.267 29.146 128.513 28.9 128.741 28.672C128.969 28.432 129.179 28.216 129.371 28.024C129.563 27.82 129.713 27.658 129.821 27.538C130.049 27.274 130.247 27.04 130.415 26.836C130.583 26.632 130.721 26.434 130.829 26.242C130.937 26.05 131.015 25.858 131.063 25.666C131.123 25.474 131.153 25.258 131.153 25.018C131.153 24.802 131.105 24.592 131.009 24.388C130.925 24.184 130.799 24.004 130.631 23.848C130.463 23.68 130.253 23.548 130.001 23.452C129.761 23.344 129.479 23.29 129.155 23.29C128.843 23.29 128.567 23.344 128.327 23.452C128.099 23.548 127.901 23.68 127.733 23.848C127.565 24.004 127.427 24.178 127.319 24.37C127.211 24.55 127.133 24.73 127.085 24.91L125.267 24.172C125.351 23.884 125.495 23.578 125.699 23.254C125.903 22.93 126.167 22.63 126.491 22.354C126.815 22.078 127.199 21.85 127.643 21.67C128.099 21.49 128.615 21.4 129.191 21.4C129.803 21.4 130.355 21.496 130.847 21.688C131.339 21.88 131.759 22.138 132.107 22.462C132.455 22.786 132.719 23.164 132.899 23.596C133.091 24.028 133.187 24.49 133.187 24.982C133.187 25.366 133.127 25.738 133.007 26.098C132.899 26.458 132.749 26.806 132.557 27.142C132.377 27.466 132.167 27.772 131.927 28.06C131.699 28.348 131.465 28.612 131.225 28.852C131.165 28.912 131.075 29.002 130.955 29.122C130.835 29.242 130.691 29.386 130.523 29.554C130.367 29.71 130.193 29.878 130.001 30.058C129.809 30.25 129.617 30.442 129.425 30.634L127.967 32.092L127.985 32.164H133.331V34H125.321ZM134.919 35.566L135.945 33.982C135.705 33.91 135.489 33.766 135.297 33.55C135.105 33.334 135.009 33.058 135.009 32.722C135.009 32.338 135.141 32.008 135.405 31.732C135.681 31.456 136.011 31.318 136.395 31.318C136.779 31.318 137.109 31.456 137.385 31.732C137.661 32.008 137.799 32.338 137.799 32.722C137.799 32.962 137.751 33.178 137.655 33.37C137.559 33.562 137.439 33.766 137.295 33.982L135.837 36.16L134.919 35.566ZM145.142 34V31.57H139.382V29.986L144.98 21.688H147.158V29.698H148.706V31.57H147.158V34H145.142ZM145.142 24.658H145.034L141.632 29.698H145.142V24.658ZM154.476 34.288C154.044 34.288 153.606 34.222 153.162 34.09C152.718 33.958 152.298 33.76 151.902 33.496C151.518 33.22 151.176 32.872 150.876 32.452C150.576 32.032 150.354 31.534 150.21 30.958L152.01 30.238C152.166 30.874 152.448 31.396 152.856 31.804C153.276 32.2 153.81 32.398 154.458 32.398C154.782 32.398 155.088 32.344 155.376 32.236C155.664 32.116 155.91 31.96 156.114 31.768C156.318 31.564 156.48 31.324 156.6 31.048C156.72 30.772 156.78 30.466 156.78 30.13C156.78 29.794 156.72 29.488 156.6 29.212C156.492 28.924 156.336 28.678 156.132 28.474C155.928 28.27 155.682 28.114 155.394 28.006C155.106 27.886 154.794 27.826 154.458 27.826C154.062 27.826 153.702 27.916 153.378 28.096C153.054 28.264 152.784 28.486 152.568 28.762L150.588 27.88L151.326 21.688H158.04V23.506H153L152.55 26.71L152.658 26.746C152.922 26.542 153.228 26.368 153.576 26.224C153.924 26.08 154.35 26.008 154.854 26.008C155.37 26.008 155.862 26.11 156.33 26.314C156.81 26.506 157.23 26.782 157.59 27.142C157.95 27.502 158.238 27.934 158.454 28.438C158.67 28.942 158.778 29.5 158.778 30.112C158.778 30.712 158.67 31.27 158.454 31.786C158.238 32.29 157.938 32.728 157.554 33.1C157.17 33.472 156.714 33.766 156.186 33.982C155.67 34.186 155.1 34.288 154.476 34.288ZM165.194 26.134C165.662 26.134 166.118 26.236 166.562 26.44C167.018 26.632 167.42 26.902 167.768 27.25C168.128 27.598 168.416 28.018 168.632 28.51C168.86 29.002 168.974 29.536 168.974 30.112C168.974 30.688 168.854 31.234 168.614 31.75C168.386 32.254 168.074 32.698 167.678 33.082C167.294 33.454 166.844 33.748 166.328 33.964C165.812 34.18 165.272 34.288 164.708 34.288C164.048 34.288 163.448 34.174 162.908 33.946C162.38 33.706 161.924 33.394 161.54 33.01C161.168 32.614 160.88 32.164 160.676 31.66C160.472 31.144 160.37 30.616 160.37 30.076C160.37 29.296 160.526 28.582 160.838 27.934C161.162 27.274 161.558 26.602 162.026 25.918L165.122 21.364L166.706 22.444L163.916 26.35L163.988 26.404C164.144 26.32 164.318 26.254 164.51 26.206C164.714 26.158 164.942 26.134 165.194 26.134ZM164.672 32.416C164.984 32.416 165.278 32.362 165.554 32.254C165.842 32.134 166.088 31.972 166.292 31.768C166.508 31.564 166.676 31.324 166.796 31.048C166.928 30.772 166.994 30.466 166.994 30.13C166.994 29.806 166.928 29.506 166.796 29.23C166.676 28.942 166.508 28.702 166.292 28.51C166.076 28.306 165.824 28.15 165.536 28.042C165.26 27.922 164.972 27.862 164.672 27.862C164.36 27.862 164.066 27.922 163.79 28.042C163.514 28.15 163.268 28.306 163.052 28.51C162.848 28.702 162.68 28.942 162.548 29.23C162.428 29.506 162.368 29.806 162.368 30.13C162.368 30.466 162.428 30.772 162.548 31.048C162.68 31.324 162.848 31.564 163.052 31.768C163.268 31.972 163.514 32.134 163.79 32.254C164.066 32.362 164.36 32.416 164.672 32.416Z" fill="black"/>
<path d="M125 6.16V13H124.08V7.3L122.75 7.88L122.4 7.1L124.41 6.16H125ZM130.408 11.56V13H129.488V11.56H126.238V10.86L129.408 6.16H130.408V10.7H131.288V11.56H130.408ZM127.278 10.7H129.488V7.51H129.448L127.278 10.7ZM132.597 14.12L132.167 13.84L132.707 13C132.567 12.9733 132.447 12.9033 132.347 12.79C132.253 12.6767 132.207 12.54 132.207 12.38C132.207 12.1867 132.273 12.0267 132.407 11.9C132.54 11.7667 132.7 11.7 132.887 11.7C133.08 11.7 133.24 11.7667 133.367 11.9C133.5 12.0267 133.567 12.1867 133.567 12.38C133.567 12.56 133.5 12.7567 133.367 12.97L132.597 14.12ZM141.585 9.42C141.585 10.48 141.232 11.3667 140.525 12.08C139.812 12.8 138.939 13.16 137.905 13.16C136.865 13.16 135.992 12.8 135.285 12.08C134.579 11.3667 134.225 10.48 134.225 9.42C134.225 8.36 134.579 7.47333 135.285 6.76C135.992 6.04 136.865 5.68 137.905 5.68C138.945 5.68 139.819 6.04333 140.525 6.77C141.232 7.48333 141.585 8.36667 141.585 9.42ZM135.165 9.42C135.165 10.2467 135.425 10.93 135.945 11.47C136.472 12.01 137.125 12.28 137.905 12.28C138.685 12.28 139.335 12.01 139.855 11.47C140.382 10.9367 140.645 10.2533 140.645 9.42C140.645 8.58667 140.382 7.90333 139.855 7.37C139.335 6.83 138.685 6.56 137.905 6.56C137.125 6.56 136.472 6.83 135.945 7.37C135.425 7.91 135.165 8.59333 135.165 9.42ZM144.751 13.16C144.025 13.16 143.421 12.9133 142.941 12.42C142.468 11.9133 142.231 11.29 142.231 10.55C142.231 9.79667 142.468 9.17333 142.941 8.68C143.421 8.18667 144.025 7.94 144.751 7.94C145.251 7.94 145.688 8.06667 146.061 8.32C146.435 8.56667 146.715 8.91 146.901 9.35L146.061 9.7C145.801 9.08667 145.345 8.78 144.691 8.78C144.271 8.78 143.908 8.95 143.601 9.29C143.301 9.63 143.151 10.05 143.151 10.55C143.151 11.05 143.301 11.47 143.601 11.81C143.908 12.15 144.271 12.32 144.691 12.32C145.365 12.32 145.838 12.0133 146.111 11.4L146.931 11.75C146.751 12.19 146.468 12.5367 146.081 12.79C145.701 13.0367 145.258 13.16 144.751 13.16ZM149.627 13.08C149.227 13.08 148.894 12.9567 148.627 12.71C148.367 12.4633 148.234 12.12 148.227 11.68V8.94H147.367V8.1H148.227V6.6H149.147V8.1H150.347V8.94H149.147V11.38C149.147 11.7067 149.21 11.93 149.337 12.05C149.464 12.1633 149.607 12.22 149.767 12.22C149.84 12.22 149.91 12.2133 149.977 12.2C150.05 12.18 150.117 12.1567 150.177 12.13L150.467 12.95C150.227 13.0367 149.947 13.08 149.627 13.08Z" fill="#979797"/>
</svg>
