<svg width="416" height="151" viewBox="0 0 416 151" fill="none" xmlns="http://www.w3.org/2000/svg">
<rect width="414" height="151" transform="translate(2)" fill="white"/>
<line opacity="0.1" x1="2" y1="1.39963" x2="415.984" y2="1.39963" stroke="#1D2125" stroke-width="1.20074" stroke-dasharray="4.8 7.2"/>
<line opacity="0.1" x1="2" y1="38.0905" x2="415.984" y2="38.0905" stroke="#1D2125" stroke-width="1.20074" stroke-dasharray="4.8 7.2"/>
<line opacity="0.1" x1="2" y1="75.7817" x2="415.984" y2="75.7817" stroke="#1D2125" stroke-width="1.20074" stroke-dasharray="4.8 7.2"/>
<line opacity="0.1" x1="2" y1="113.473" x2="415.984" y2="113.473" stroke="#1D2125" stroke-width="1.20074" stroke-dasharray="4.8 7.2"/>
<line opacity="0.1" x1="2" y1="150.164" x2="415.984" y2="150.164" stroke="#1D2125" stroke-width="1.20074" stroke-dasharray="4.8 7.2"/>
<path d="M2 132.309C54.3919 132.309 48.1959 33.7212 100.588 33.7212C152.98 33.7212 146.784 60.0113 199.176 60.0113C251.568 60.0113 243.494 103.202 295.885 103.202C348.277 103.202 357.155 125.391 409.546 125.391" stroke="url(#paint0_linear_319_23)" stroke-width="3" stroke-linecap="round"/>
<path d="M2 132.309C53.1907 132.309 59.7253 63.7671 110.916 63.7671C162.107 63.7671 153.618 9.30908 204.809 9.30908C256 9.30908 255.023 86.3014 306.214 86.3014C357.404 86.3014 360.183 125.107 411.374 125.107" stroke="url(#paint1_linear_319_23)" stroke-width="3" stroke-linecap="round"/>
<circle opacity="0.2" cx="327" cy="89" r="10" fill="#4EF2E4"/>
<circle cx="327" cy="89" r="5" fill="#4EEEE5"/>
<path d="M297.287 68.234C296.867 68.186 296.459 68.078 296.063 67.91C295.667 67.742 295.295 67.52 294.947 67.244C294.611 66.968 294.311 66.632 294.047 66.236C293.795 65.84 293.597 65.384 293.453 64.868L295.235 64.13C295.367 64.658 295.613 65.126 295.973 65.534C296.333 65.93 296.771 66.194 297.287 66.326V62.438L297.161 62.384C296.693 62.204 296.261 62 295.865 61.772C295.469 61.532 295.127 61.262 294.839 60.962C294.551 60.662 294.329 60.332 294.173 59.972C294.017 59.612 293.939 59.204 293.939 58.748C293.939 58.34 294.011 57.95 294.155 57.578C294.311 57.206 294.533 56.87 294.821 56.57C295.109 56.27 295.457 56.024 295.865 55.832C296.285 55.628 296.759 55.496 297.287 55.436V53.888H298.781V55.472C299.249 55.544 299.657 55.67 300.005 55.85C300.353 56.03 300.653 56.24 300.905 56.48C301.157 56.708 301.361 56.954 301.517 57.218C301.673 57.47 301.793 57.71 301.877 57.938L300.113 58.712C300.029 58.46 299.879 58.208 299.663 57.956C299.459 57.704 299.165 57.512 298.781 57.38V61.016C299.249 61.22 299.687 61.436 300.095 61.664C300.503 61.88 300.857 62.132 301.157 62.42C301.457 62.696 301.691 63.02 301.859 63.392C302.039 63.752 302.129 64.172 302.129 64.652C302.129 65.192 302.033 65.666 301.841 66.074C301.661 66.482 301.415 66.836 301.103 67.136C300.803 67.436 300.449 67.676 300.041 67.856C299.645 68.024 299.225 68.144 298.781 68.216V69.8H297.287V68.234ZM300.131 64.688C300.131 64.304 300.017 63.992 299.789 63.752C299.573 63.512 299.237 63.284 298.781 63.068V66.29C299.177 66.182 299.501 65.996 299.753 65.732C300.005 65.456 300.131 65.108 300.131 64.688ZM295.865 58.766C295.865 59.114 295.979 59.414 296.207 59.666C296.447 59.906 296.807 60.146 297.287 60.386V57.29C296.855 57.386 296.507 57.566 296.243 57.83C295.991 58.082 295.865 58.394 295.865 58.766Z" fill="#C720FE"/>
<path d="M307.576 68V66.11C308.272 65.426 308.914 64.784 309.502 64.184C309.754 63.932 310.006 63.674 310.258 63.41C310.522 63.146 310.768 62.9 310.996 62.672C311.224 62.432 311.434 62.216 311.626 62.024C311.818 61.82 311.968 61.658 312.076 61.538C312.304 61.274 312.502 61.04 312.67 60.836C312.838 60.632 312.976 60.434 313.084 60.242C313.192 60.05 313.27 59.858 313.318 59.666C313.378 59.474 313.408 59.258 313.408 59.018C313.408 58.802 313.36 58.592 313.264 58.388C313.18 58.184 313.054 58.004 312.886 57.848C312.718 57.68 312.508 57.548 312.256 57.452C312.016 57.344 311.734 57.29 311.41 57.29C311.098 57.29 310.822 57.344 310.582 57.452C310.354 57.548 310.156 57.68 309.988 57.848C309.82 58.004 309.682 58.178 309.574 58.37C309.466 58.55 309.388 58.73 309.34 58.91L307.522 58.172C307.606 57.884 307.75 57.578 307.954 57.254C308.158 56.93 308.422 56.63 308.746 56.354C309.07 56.078 309.454 55.85 309.898 55.67C310.354 55.49 310.87 55.4 311.446 55.4C312.058 55.4 312.61 55.496 313.102 55.688C313.594 55.88 314.014 56.138 314.362 56.462C314.71 56.786 314.974 57.164 315.154 57.596C315.346 58.028 315.442 58.49 315.442 58.982C315.442 59.366 315.382 59.738 315.262 60.098C315.154 60.458 315.004 60.806 314.812 61.142C314.632 61.466 314.422 61.772 314.182 62.06C313.954 62.348 313.72 62.612 313.48 62.852C313.42 62.912 313.33 63.002 313.21 63.122C313.09 63.242 312.946 63.386 312.778 63.554C312.622 63.71 312.448 63.878 312.256 64.058C312.064 64.25 311.872 64.442 311.68 64.634L310.222 66.092L310.24 66.164H315.586V68H307.576ZM321.926 60.134C322.394 60.134 322.85 60.236 323.294 60.44C323.75 60.632 324.152 60.902 324.5 61.25C324.86 61.598 325.148 62.018 325.364 62.51C325.592 63.002 325.706 63.536 325.706 64.112C325.706 64.688 325.586 65.234 325.346 65.75C325.118 66.254 324.806 66.698 324.41 67.082C324.026 67.454 323.576 67.748 323.06 67.964C322.544 68.18 322.004 68.288 321.44 68.288C320.78 68.288 320.18 68.174 319.64 67.946C319.112 67.706 318.656 67.394 318.272 67.01C317.9 66.614 317.612 66.164 317.408 65.66C317.204 65.144 317.102 64.616 317.102 64.076C317.102 63.296 317.258 62.582 317.57 61.934C317.894 61.274 318.29 60.602 318.758 59.918L321.854 55.364L323.438 56.444L320.648 60.35L320.72 60.404C320.876 60.32 321.05 60.254 321.242 60.206C321.446 60.158 321.674 60.134 321.926 60.134ZM321.404 66.416C321.716 66.416 322.01 66.362 322.286 66.254C322.574 66.134 322.82 65.972 323.024 65.768C323.24 65.564 323.408 65.324 323.528 65.048C323.66 64.772 323.726 64.466 323.726 64.13C323.726 63.806 323.66 63.506 323.528 63.23C323.408 62.942 323.24 62.702 323.024 62.51C322.808 62.306 322.556 62.15 322.268 62.042C321.992 61.922 321.704 61.862 321.404 61.862C321.092 61.862 320.798 61.922 320.522 62.042C320.246 62.15 320 62.306 319.784 62.51C319.58 62.702 319.412 62.942 319.28 63.23C319.16 63.506 319.1 63.806 319.1 64.13C319.1 64.466 319.16 64.772 319.28 65.048C319.412 65.324 319.58 65.564 319.784 65.768C320 65.972 320.246 66.134 320.522 66.254C320.798 66.362 321.092 66.416 321.404 66.416ZM327.211 69.566L328.237 67.982C327.997 67.91 327.781 67.766 327.589 67.55C327.397 67.334 327.301 67.058 327.301 66.722C327.301 66.338 327.433 66.008 327.697 65.732C327.973 65.456 328.303 65.318 328.687 65.318C329.071 65.318 329.401 65.456 329.677 65.732C329.953 66.008 330.091 66.338 330.091 66.722C330.091 66.962 330.043 67.178 329.947 67.37C329.851 67.562 329.731 67.766 329.587 67.982L328.129 70.16L327.211 69.566ZM337.434 68V65.57H331.674V63.986L337.272 55.688H339.45V63.698H340.998V65.57H339.45V68H337.434ZM337.434 58.658H337.326L333.924 63.698H337.434V58.658ZM346.768 68.288C346.336 68.288 345.898 68.222 345.454 68.09C345.01 67.958 344.59 67.76 344.194 67.496C343.81 67.22 343.468 66.872 343.168 66.452C342.868 66.032 342.646 65.534 342.502 64.958L344.302 64.238C344.458 64.874 344.74 65.396 345.148 65.804C345.568 66.2 346.102 66.398 346.75 66.398C347.074 66.398 347.38 66.344 347.668 66.236C347.956 66.116 348.202 65.96 348.406 65.768C348.61 65.564 348.772 65.324 348.892 65.048C349.012 64.772 349.072 64.466 349.072 64.13C349.072 63.794 349.012 63.488 348.892 63.212C348.784 62.924 348.628 62.678 348.424 62.474C348.22 62.27 347.974 62.114 347.686 62.006C347.398 61.886 347.086 61.826 346.75 61.826C346.354 61.826 345.994 61.916 345.67 62.096C345.346 62.264 345.076 62.486 344.86 62.762L342.88 61.88L343.618 55.688H350.332V57.506H345.292L344.842 60.71L344.95 60.746C345.214 60.542 345.52 60.368 345.868 60.224C346.216 60.08 346.642 60.008 347.146 60.008C347.662 60.008 348.154 60.11 348.622 60.314C349.102 60.506 349.522 60.782 349.882 61.142C350.242 61.502 350.53 61.934 350.746 62.438C350.962 62.942 351.07 63.5 351.07 64.112C351.07 64.712 350.962 65.27 350.746 65.786C350.53 66.29 350.23 66.728 349.846 67.1C349.462 67.472 349.006 67.766 348.478 67.982C347.962 68.186 347.392 68.288 346.768 68.288ZM357.486 60.134C357.954 60.134 358.41 60.236 358.854 60.44C359.31 60.632 359.712 60.902 360.06 61.25C360.42 61.598 360.708 62.018 360.924 62.51C361.152 63.002 361.266 63.536 361.266 64.112C361.266 64.688 361.146 65.234 360.906 65.75C360.678 66.254 360.366 66.698 359.97 67.082C359.586 67.454 359.136 67.748 358.62 67.964C358.104 68.18 357.564 68.288 357 68.288C356.34 68.288 355.74 68.174 355.2 67.946C354.672 67.706 354.216 67.394 353.832 67.01C353.46 66.614 353.172 66.164 352.968 65.66C352.764 65.144 352.662 64.616 352.662 64.076C352.662 63.296 352.818 62.582 353.13 61.934C353.454 61.274 353.85 60.602 354.318 59.918L357.414 55.364L358.998 56.444L356.208 60.35L356.28 60.404C356.436 60.32 356.61 60.254 356.802 60.206C357.006 60.158 357.234 60.134 357.486 60.134ZM356.964 66.416C357.276 66.416 357.57 66.362 357.846 66.254C358.134 66.134 358.38 65.972 358.584 65.768C358.8 65.564 358.968 65.324 359.088 65.048C359.22 64.772 359.286 64.466 359.286 64.13C359.286 63.806 359.22 63.506 359.088 63.23C358.968 62.942 358.8 62.702 358.584 62.51C358.368 62.306 358.116 62.15 357.828 62.042C357.552 61.922 357.264 61.862 356.964 61.862C356.652 61.862 356.358 61.922 356.082 62.042C355.806 62.15 355.56 62.306 355.344 62.51C355.14 62.702 354.972 62.942 354.84 63.23C354.72 63.506 354.66 63.806 354.66 64.13C354.66 64.466 354.72 64.772 354.84 65.048C354.972 65.324 355.14 65.564 355.344 65.768C355.56 65.972 355.806 66.134 356.082 66.254C356.358 66.362 356.652 66.416 356.964 66.416Z" fill="black"/>
<path d="M317.76 48.12V49H313.4V48.08L315.17 46.29C315.763 45.6833 316.173 45.23 316.4 44.93C316.627 44.6233 316.74 44.3033 316.74 43.97C316.74 43.67 316.623 43.4133 316.39 43.2C316.157 42.9867 315.857 42.88 315.49 42.88C315.177 42.88 314.907 42.9733 314.68 43.16C314.453 43.3467 314.307 43.5733 314.24 43.84L313.4 43.5C313.533 43.08 313.79 42.7267 314.17 42.44C314.55 42.1467 314.997 42 315.51 42C316.13 42 316.647 42.19 317.06 42.57C317.473 42.95 317.68 43.4167 317.68 43.97C317.68 44.63 317.317 45.3433 316.59 46.11L314.59 48.12H317.76ZM321.145 44.66C321.699 44.66 322.192 44.88 322.625 45.32C323.065 45.7533 323.285 46.27 323.285 46.87C323.285 47.4833 323.052 48.02 322.585 48.48C322.112 48.9333 321.565 49.16 320.945 49.16C320.285 49.16 319.729 48.9333 319.275 48.48C318.822 48.0267 318.595 47.49 318.595 46.87C318.595 46.3167 318.819 45.6867 319.265 44.98L321.255 42L321.995 42.51L320.305 44.85L320.325 44.87C320.532 44.73 320.805 44.66 321.145 44.66ZM319.525 46.88C319.525 47.2733 319.662 47.6067 319.935 47.88C320.209 48.1467 320.545 48.28 320.945 48.28C321.345 48.28 321.679 48.1467 321.945 47.88C322.219 47.6067 322.355 47.2733 322.355 46.88C322.355 46.4933 322.215 46.1633 321.935 45.89C321.662 45.6167 321.332 45.48 320.945 45.48C320.565 45.48 320.232 45.6167 319.945 45.89C319.665 46.1633 319.525 46.4933 319.525 46.88ZM324.554 50.12L324.124 49.84L324.664 49C324.524 48.9733 324.404 48.9033 324.304 48.79C324.21 48.6767 324.164 48.54 324.164 48.38C324.164 48.1867 324.23 48.0267 324.364 47.9C324.497 47.7667 324.657 47.7 324.844 47.7C325.037 47.7 325.197 47.7667 325.324 47.9C325.457 48.0267 325.524 48.1867 325.524 48.38C325.524 48.56 325.457 48.7567 325.324 48.97L324.554 50.12ZM333.543 45.42C333.543 46.48 333.189 47.3667 332.483 48.08C331.769 48.8 330.896 49.16 329.863 49.16C328.823 49.16 327.949 48.8 327.243 48.08C326.536 47.3667 326.183 46.48 326.183 45.42C326.183 44.36 326.536 43.4733 327.243 42.76C327.949 42.04 328.823 41.68 329.863 41.68C330.903 41.68 331.776 42.0433 332.483 42.77C333.189 43.4833 333.543 44.3667 333.543 45.42ZM327.123 45.42C327.123 46.2467 327.383 46.93 327.903 47.47C328.429 48.01 329.083 48.28 329.863 48.28C330.643 48.28 331.293 48.01 331.813 47.47C332.339 46.9367 332.603 46.2533 332.603 45.42C332.603 44.5867 332.339 43.9033 331.813 43.37C331.293 42.83 330.643 42.56 329.863 42.56C329.083 42.56 328.429 42.83 327.903 43.37C327.383 43.91 327.123 44.5933 327.123 45.42ZM336.708 49.16C335.982 49.16 335.378 48.9133 334.898 48.42C334.425 47.9133 334.188 47.29 334.188 46.55C334.188 45.7967 334.425 45.1733 334.898 44.68C335.378 44.1867 335.982 43.94 336.708 43.94C337.208 43.94 337.645 44.0667 338.018 44.32C338.392 44.5667 338.672 44.91 338.858 45.35L338.018 45.7C337.758 45.0867 337.302 44.78 336.648 44.78C336.228 44.78 335.865 44.95 335.558 45.29C335.258 45.63 335.108 46.05 335.108 46.55C335.108 47.05 335.258 47.47 335.558 47.81C335.865 48.15 336.228 48.32 336.648 48.32C337.322 48.32 337.795 48.0133 338.068 47.4L338.888 47.75C338.708 48.19 338.425 48.5367 338.038 48.79C337.658 49.0367 337.215 49.16 336.708 49.16ZM341.584 49.08C341.184 49.08 340.851 48.9567 340.584 48.71C340.324 48.4633 340.191 48.12 340.184 47.68V44.94H339.324V44.1H340.184V42.6H341.104V44.1H342.304V44.94H341.104V47.38C341.104 47.7067 341.167 47.93 341.294 48.05C341.421 48.1633 341.564 48.22 341.724 48.22C341.797 48.22 341.867 48.2133 341.934 48.2C342.007 48.18 342.074 48.1567 342.134 48.13L342.424 48.95C342.184 49.0367 341.904 49.08 341.584 49.08Z" fill="#979797"/>
<defs>
<linearGradient id="paint0_linear_319_23" x1="409.546" y1="33.7212" x2="16.8585" y2="33.7212" gradientUnits="userSpaceOnUse">
<stop stop-color="#4DFFDF"/>
<stop offset="1" stop-color="#4DA1FF"/>
</linearGradient>
<linearGradient id="paint1_linear_319_23" x1="411.374" y1="40.0588" x2="12.2084" y2="41.1943" gradientUnits="userSpaceOnUse">
<stop stop-color="#E323FF"/>
<stop offset="1" stop-color="#7517F8"/>
</linearGradient>
</defs>
</svg>
