<svg width="44" height="42" viewBox="0 0 44 42" fill="none" xmlns="http://www.w3.org/2000/svg">
<path d="M43.3878 7.17859C43.3878 7.16409 43.3878 7.14959 43.3878 7.13509C43.2196 4.89454 42.8146 2.67811 42.1795 0.522889C42.1247 0.337331 41.9984 0.181144 41.8284 0.088686C41.6585 -0.00377228 41.4587 -0.0249249 41.2732 0.0298771C41.0876 0.0846791 40.9314 0.210945 40.839 0.380905C40.7465 0.550865 40.7254 0.750597 40.7802 0.936155C41.3825 2.97167 41.7697 5.06473 41.9354 7.18101C41.9354 7.19551 41.9354 7.21243 41.9354 7.22935C42.059 8.68035 42.0711 10.1387 41.9716 11.5916C41.8734 13.0245 41.6674 14.4479 41.3554 15.8499C41.0453 17.2407 40.6325 18.6067 40.1204 19.9366C39.6096 21.2618 39.0022 22.5478 38.303 23.784C37.603 25.0205 36.8131 26.2039 35.9395 27.3245C35.0615 28.4504 34.101 29.5095 33.0659 30.4929C32.0215 31.4862 30.9034 32.3992 29.7212 33.2238H29.7091H29.697C28.4203 34.2832 26.9676 35.1102 25.4049 35.6671C24.2792 36.0617 23.2094 36.6002 22.222 37.2694C21.2347 36.6002 20.1648 36.0617 19.0392 35.6671C17.4745 35.117 16.0185 34.2966 14.7374 33.2431H14.7253H14.7132C13.5254 32.4137 12.4024 31.4951 11.354 30.4953C10.3189 29.5119 9.35839 28.4529 8.48045 27.327C7.60681 26.2063 6.81683 25.023 6.11688 23.7864C5.41763 22.5502 4.81019 21.2643 4.29949 19.939C3.78739 18.6091 3.37461 17.2432 3.06453 15.8523C2.75243 14.4503 2.54643 13.0269 2.44827 11.594C2.34875 10.1411 2.36087 8.68277 2.48452 7.23176C2.48452 7.21484 2.48452 7.20034 2.48452 7.18342C2.65025 5.06715 3.03744 2.97409 3.63972 0.93857C3.69452 0.753012 3.67336 0.55328 3.58091 0.38332C3.48845 0.21336 3.33226 0.0870945 3.1467 0.0322925C2.96115 -0.0225095 2.76142 -0.00135687 2.59146 0.0911014C2.4215 0.18356 2.29523 0.339746 2.24043 0.525304C1.60533 2.68053 1.20028 4.89696 1.03206 7.1375C1.03206 7.152 1.03206 7.16651 1.03206 7.18101C0.907988 8.67964 0.896678 10.1855 0.998222 11.6858C1.10174 13.1903 1.31824 14.6848 1.64591 16.1568C1.97102 17.6183 2.404 19.0538 2.94128 20.4513C3.47708 21.8431 4.11439 23.1937 4.84809 24.4921C5.58294 25.792 6.41252 27.0359 7.33008 28.2139C8.25227 29.3973 9.26122 30.5105 10.3486 31.5442C11.4431 32.5839 12.6145 33.5396 13.8529 34.4032C15.2403 35.5458 16.8151 36.4395 18.5075 37.0447C19.3516 37.3424 20.1617 37.7288 20.9242 38.1974C20.1702 38.7751 19.2954 39.5001 18.2658 40.4281C18.1216 40.5563 18.0342 40.7365 18.0229 40.9291C18.0116 41.1218 18.0772 41.311 18.2054 41.4552C18.3336 41.5994 18.5138 41.6868 18.7065 41.6982C18.8991 41.7095 19.0883 41.6438 19.2325 41.5156C20.4409 40.4402 21.3955 39.6548 22.1955 39.0626C22.9954 39.6548 23.9573 40.4402 25.1584 41.5156C25.3026 41.6438 25.4918 41.7095 25.6844 41.6982C25.8771 41.6868 26.0573 41.5994 26.1855 41.4552C26.3137 41.311 26.3793 41.1218 26.368 40.9291C26.3567 40.7365 26.2693 40.5563 26.1251 40.4281C25.0883 39.5001 24.2158 38.7751 23.4667 38.1974C24.2292 37.7288 25.0393 37.3423 25.8834 37.0447C27.5758 36.4396 29.1507 35.5459 30.538 34.4032C31.7861 33.5431 32.9672 32.5898 34.0713 31.5514C35.1587 30.5177 36.1676 29.4046 37.0898 28.2212C38.0074 27.0432 38.837 25.7992 39.5718 24.4994C40.3055 23.2009 40.9428 21.8504 41.4786 20.4586C42.0159 19.061 42.4489 17.6256 42.774 16.164C43.1017 14.6921 43.3182 13.1975 43.4217 11.6931C43.5238 10.1895 43.5124 8.68043 43.3878 7.17859Z" fill="#FF6D3A"/>
</svg>
