<svg width="100" height="84" viewBox="0 0 100 84" fill="none" xmlns="http://www.w3.org/2000/svg">
<path d="M89.3981 83.5402C88.9986 83.5398 88.6088 83.4168 88.2815 83.1877C87.9542 82.9587 87.7051 82.6346 87.5679 82.2594C87.4307 81.8842 87.412 81.476 87.5143 81.0898C87.6165 80.7036 87.8349 80.3581 88.1399 80.1001C88.4449 79.842 88.8217 79.6838 89.2195 79.6468C89.6172 79.6098 90.0168 79.6958 90.3641 79.8932C90.7114 80.0906 90.9898 80.3898 91.1616 80.7505C91.3333 81.1112 91.3902 81.5158 91.3246 81.9099C91.2456 82.3644 91.0094 82.7767 90.6572 83.0747C90.3051 83.3727 89.8594 83.5375 89.3981 83.5402V83.5402Z" fill="white"/>
<path d="M50.0025 72.3889C49.4843 72.3889 48.9874 72.183 48.621 71.8166C48.2546 71.4502 48.0488 70.9534 48.0488 70.4352V55.7815C48.0488 55.525 48.0994 55.2709 48.1975 55.0339C48.2957 54.7969 48.4396 54.5815 48.621 54.4C48.8024 54.2186 49.0178 54.0747 49.2548 53.9766C49.4919 53.8784 49.7459 53.8279 50.0025 53.8279C50.259 53.8279 50.5131 53.8784 50.7501 53.9766C50.9871 54.0747 51.2025 54.2186 51.3839 54.4C51.5653 54.5815 51.7092 54.7969 51.8074 55.0339C51.9056 55.2709 51.9561 55.525 51.9561 55.7815V70.4352C51.9561 70.9534 51.7503 71.4502 51.3839 71.8166C51.0175 72.183 50.5206 72.3889 50.0025 72.3889Z" fill="white"/>
<path d="M98.0464 47.4071H69.9182V42.1983C69.9182 41.9417 69.8677 41.6877 69.7695 41.4507C69.6713 41.2137 69.5274 40.9983 69.346 40.8169C69.1646 40.6355 68.9492 40.4915 68.7122 40.3933C68.4752 40.2952 68.2211 40.2446 67.9646 40.2446H32.0327C31.5146 40.2446 31.0177 40.4505 30.6513 40.8169C30.2849 41.1832 30.0791 41.6802 30.0791 42.1983V52.5942H1.95365C1.43551 52.5942 0.938589 52.8 0.572209 53.1664C0.20583 53.5328 0 54.0297 0 54.5478V81.5782C0 82.0964 0.20583 82.5933 0.572209 82.9597C0.938589 83.326 1.43551 83.5319 1.95365 83.5319H80.6021C80.8587 83.5319 81.1127 83.4814 81.3498 83.3832C81.5868 83.285 81.8022 83.1411 81.9836 82.9597C82.165 82.7783 82.3089 82.5629 82.4071 82.3259C82.5052 82.0888 82.5558 81.8348 82.5558 81.5782C82.5558 81.3217 82.5052 81.0676 82.4071 80.8306C82.3089 80.5936 82.165 80.3782 81.9836 80.1968C81.8022 80.0154 81.5868 79.8715 81.3498 79.7733C81.1127 79.6751 80.8587 79.6246 80.6021 79.6246H69.9182V51.3117H96.0927V81.5891C96.0927 82.1072 96.2985 82.6041 96.6649 82.9705C97.0313 83.3369 97.5282 83.5428 98.0464 83.5428C98.5645 83.5428 99.0614 83.3369 99.4278 82.9705C99.7942 82.6041 100 82.1072 100 81.5891V49.3608C100 48.8426 99.7942 48.3457 99.4278 47.9793C99.0614 47.613 98.5645 47.4071 98.0464 47.4071V47.4071ZM3.90729 56.5124H30.0818V79.6355H3.90729V56.5124ZM33.9864 44.1492H66.0136V79.6355H33.9864V44.1492Z" fill="white"/>
<path d="M21.4398 42.4644C21.0126 42.4639 20.5896 42.3789 20.1953 42.2144L16.9945 40.8884L13.791 42.2144C13.2801 42.4255 12.7236 42.5022 12.1747 42.4371C11.6258 42.3719 11.1027 42.1671 10.6555 41.8423C10.2083 41.5174 9.85178 41.0833 9.62009 40.5814C9.3884 40.0795 9.28924 39.5266 9.33209 38.9755L9.6038 35.5193L7.35127 32.8836C6.99119 32.4632 6.74515 31.9573 6.63676 31.4145C6.52837 30.8717 6.56127 30.3102 6.7323 29.7837C6.90332 29.2573 7.20675 28.7836 7.61346 28.4081C8.02017 28.0327 8.51653 27.768 9.05494 27.6395L12.4242 26.8243L14.2366 23.868C14.5257 23.3965 14.9309 23.007 15.4135 22.7368C15.8962 22.4666 16.44 22.3247 16.9932 22.3247C17.5463 22.3247 18.0901 22.4666 18.5728 22.7368C19.0554 23.007 19.4606 23.3965 19.7497 23.868L21.5621 26.8406L24.9341 27.6558C25.472 27.785 25.9678 28.05 26.3741 28.4255C26.7803 28.8011 27.0834 29.2746 27.2544 29.8008C27.4253 30.327 27.4584 30.8882 27.3504 31.4308C27.2424 31.9734 26.9971 32.4793 26.6377 32.8999L24.3852 35.5356L24.6569 38.9918C24.6913 39.4359 24.6337 39.8822 24.4878 40.303C24.3419 40.7238 24.1107 41.11 23.8088 41.4374C23.5069 41.7649 23.1407 42.0265 22.733 42.206C22.3254 42.3855 21.8852 42.479 21.4398 42.4806V42.4644ZM11.033 31.1881L13.0954 33.6037C13.4316 33.9974 13.5977 34.5086 13.5573 35.0247L13.3073 38.1903L16.2419 36.9729C16.7203 36.7749 17.2578 36.7749 17.7363 36.9729L20.6708 38.1903L20.4209 35.0247C20.3804 34.5086 20.5466 33.9974 20.8828 33.6037L22.9451 31.1881L19.8557 30.4463C19.6045 30.386 19.3678 30.2764 19.1593 30.1239C18.9508 29.9714 18.7747 29.7789 18.6411 29.5578L16.9809 26.8406L15.3235 29.5578C15.0526 29.999 14.6177 30.3147 14.1143 30.4354L11.033 31.1881Z" fill="white"/>
<path d="M78.5578 42.4622C78.1124 42.4605 77.6721 42.367 77.2645 42.1875C76.8569 42.008 76.4907 41.7464 76.1888 41.4189C75.8869 41.0915 75.6557 40.7053 75.5097 40.2845C75.3638 39.8637 75.3062 39.4174 75.3406 38.9733L75.6123 35.5171L73.3598 32.8814C73.0005 32.4607 72.7551 31.9549 72.6471 31.4123C72.5392 30.8697 72.5722 30.3085 72.7432 29.7823C72.9141 29.2561 73.2172 28.7826 73.6234 28.4071C74.0297 28.0315 74.5255 27.7664 75.0635 27.6373L78.4355 26.8221L80.2478 23.8658C80.5369 23.3943 80.9422 23.0048 81.4248 22.7346C81.9074 22.4644 82.4513 22.3225 83.0044 22.3225C83.5575 22.3225 84.1014 22.4644 84.584 22.7346C85.0666 23.0048 85.4719 23.3943 85.761 23.8658L87.5733 26.8221L90.9426 27.6373C91.4805 27.7664 91.9764 28.0315 92.3826 28.4071C92.7888 28.7826 93.092 29.2561 93.2629 29.7823C93.4338 30.3085 93.4669 30.8697 93.3589 31.4123C93.251 31.9549 93.0056 32.4607 92.6463 32.8814L90.3937 35.5171L90.6655 38.9733C90.7091 39.5246 90.6104 40.078 90.379 40.5803C90.1475 41.0826 89.791 41.517 89.3435 41.8421C88.8961 42.1671 88.3726 42.3718 87.8233 42.4366C87.2741 42.5014 86.7174 42.4241 86.2066 42.2122L83.003 40.8862L79.8022 42.2122C79.4077 42.3762 78.985 42.4612 78.5578 42.4622V42.4622ZM83.003 36.8186C83.2595 36.8187 83.5134 36.8695 83.7502 36.968L86.6848 38.1853L86.4348 35.0198C86.3944 34.5036 86.5606 33.9925 86.8968 33.5987L88.9591 31.1832L85.8696 30.4414C85.6203 30.3817 85.3852 30.2735 85.1777 30.1229C84.9702 29.9723 84.7945 29.7823 84.6605 29.5637L83.0003 26.8466L81.3429 29.5637C81.2089 29.7823 81.0331 29.9723 80.8256 30.1229C80.6181 30.2735 80.383 30.3817 80.1337 30.4414L77.0443 31.1832L79.1094 33.5987C79.446 33.9933 79.6121 34.5055 79.5712 35.0226L79.3213 38.1881L82.2558 36.9707C82.4925 36.8714 82.7464 36.8197 83.003 36.8186Z" fill="white"/>
<path d="M42.2113 32.3324C41.6331 32.3304 41.0615 32.2091 40.5322 31.9761C40.003 31.7432 39.5275 31.4035 39.1355 30.9783C38.7435 30.5532 38.4435 30.0518 38.2541 29.5054C38.0648 28.959 37.9902 28.3794 38.035 27.8029L38.5595 21.1404L34.212 16.0593C33.7485 15.5133 33.4325 14.8578 33.294 14.1552C33.1555 13.4526 33.1992 12.7262 33.421 12.0452C33.6427 11.3642 34.0351 10.7513 34.5607 10.2649C35.0863 9.77851 35.7277 9.43474 36.4238 9.26637L42.9233 7.70671L46.4202 2.00337C46.7953 1.3913 47.3211 0.885708 47.9474 0.534949C48.5737 0.184189 49.2796 0 49.9974 0C50.7153 0 51.4211 0.184189 52.0474 0.534949C52.6737 0.885708 53.1995 1.3913 53.5746 2.00337L57.0661 7.70943L63.5656 9.26908C64.2617 9.43746 64.9031 9.78123 65.4287 10.2676C65.9543 10.7541 66.3467 11.3669 66.5684 12.0479C66.7901 12.7289 66.8338 13.4553 66.6953 14.1579C66.5569 14.8606 66.2409 15.5161 65.7774 16.062L61.4299 21.1431L61.9543 27.8056C62.011 28.5216 61.883 29.2402 61.5824 29.8925C61.2819 30.5448 60.8189 31.1091 60.2378 31.5312C59.6567 31.9533 58.9769 32.2192 58.2636 32.3033C57.5504 32.3875 56.8274 32.2871 56.164 32.0118L49.9906 29.4522L43.8145 32.0118C43.303 32.2247 42.7545 32.3346 42.2005 32.3351L42.2113 32.3324ZM50.0015 3.89452C49.9515 3.89263 49.902 3.90456 49.8584 3.92901C49.8147 3.95346 49.7787 3.98948 49.7542 4.0331L45.8415 10.4239C45.7075 10.6424 45.5317 10.8324 45.3243 10.983C45.1168 11.1336 44.8817 11.2419 44.6324 11.3015L37.3449 13.0514C37.2964 13.0626 37.2517 13.0861 37.215 13.1198C37.1783 13.1534 37.151 13.196 37.1357 13.2433C37.1204 13.2907 37.1176 13.3412 37.1276 13.3899C37.1376 13.4386 37.16 13.484 37.1927 13.5215L42.0592 19.2275C42.226 19.4228 42.3527 19.6491 42.4319 19.8934C42.5112 20.1377 42.5415 20.3953 42.5211 20.6513L41.9315 28.1208C41.9278 28.1701 41.9368 28.2196 41.9576 28.2644C41.9784 28.3093 42.0104 28.3482 42.0503 28.3773C42.0903 28.4064 42.1371 28.4248 42.1862 28.4308C42.2353 28.4368 42.2851 28.4302 42.3309 28.4115L49.2515 25.5395C49.73 25.3414 50.2675 25.3414 50.746 25.5395L57.6693 28.4088C57.7151 28.4283 57.7652 28.4355 57.8146 28.4299C57.864 28.4242 57.9111 28.4058 57.9514 28.3766C57.9916 28.3473 58.0235 28.3081 58.0441 28.2628C58.0647 28.2175 58.0732 28.1676 58.0687 28.1181L57.4791 20.6486C57.4587 20.3925 57.489 20.135 57.5683 19.8907C57.6476 19.6464 57.7742 19.4201 57.941 19.2248L62.8102 13.5187C62.843 13.4813 62.8654 13.4359 62.8754 13.3872C62.8854 13.3384 62.8826 13.2879 62.8673 13.2406C62.852 13.1933 62.8246 13.1507 62.788 13.1171C62.7513 13.0834 62.7066 13.0599 62.6581 13.0487L55.3706 11.2988C55.1213 11.2391 54.8862 11.1309 54.6787 10.9803C54.4712 10.8297 54.2954 10.6397 54.1614 10.4212L50.246 4.03038C50.2198 3.98928 50.183 3.95599 50.1395 3.934C50.096 3.91201 50.0474 3.90213 49.9987 3.90539L50.0015 3.89452Z" fill="white"/>
</svg>
