<svg width="100" height="122" viewBox="0 0 100 122" fill="none" xmlns="http://www.w3.org/2000/svg">
<path d="M79.7538 52.7651C80.7141 52.9609 81.65 52.3417 81.8464 51.3796C82.2847 49.2319 82.5067 47.022 82.5067 44.8104C82.5067 26.833 67.9249 12.207 50.0014 12.207C32.0779 12.207 17.4961 26.833 17.4961 44.8104C17.4961 62.7879 32.0779 77.4139 50.0014 77.4139C62.2182 77.4139 73.292 70.6452 78.9011 59.7494C79.3503 58.8766 79.0094 57.8038 78.1392 57.3532C77.2692 56.9024 76.1995 57.245 75.7503 58.1173C70.7523 67.8259 60.8861 73.8569 50.0016 73.8569C34.0334 73.8569 21.0424 60.8267 21.0424 44.8102C21.0424 28.7937 34.0334 15.7635 50.0016 15.7635C65.9699 15.7635 78.9609 28.7937 78.9609 44.8102C78.9609 46.7825 78.763 48.7527 78.3725 50.6661C78.1761 51.6285 78.7947 52.5682 79.7538 52.7651V52.7651Z" fill="white"/>
<path d="M69.7285 38.1958C69.5196 37.5506 68.9631 37.0811 68.2938 36.9849L56.7385 35.3247L51.5934 24.8145C51.0057 23.5083 48.9977 23.5086 48.4103 24.8145L43.2652 35.3244L31.7099 36.9847C30.2881 37.1419 29.6704 39.0584 30.7262 40.0208L39.1017 48.1767L37.105 59.7126C36.8147 61.1131 38.4369 62.3003 39.6802 61.5894L50.0017 56.1198L60.3233 61.5894C61.5646 62.3003 63.1894 61.1131 62.8984 59.7126L60.9018 48.1767L69.2772 40.0208C69.7626 39.5487 69.9375 38.8407 69.7285 38.1958V38.1958ZM57.7597 46.2795C57.3392 46.689 57.1477 47.2802 57.2477 47.8597L58.7869 56.7529L50.8298 52.5362C50.3116 52.2617 49.6916 52.2617 49.1734 52.5362L41.2163 56.7529L42.7555 47.8597C42.8558 47.2802 42.664 46.689 42.2435 46.2795L35.7866 39.992L44.695 38.7118C45.2751 38.6284 45.7767 38.2631 46.0351 37.7353L50.0015 29.633L53.9678 37.7353C54.2262 38.2629 54.7279 38.6284 55.308 38.7118L64.2164 39.992L57.7597 46.2795Z" fill="white"/>
<path d="M99.7559 105.708L82.4264 75.6017C90.0145 67.5668 94.6756 56.7245 94.6756 44.8098C94.6754 20.1015 74.6344 0 50.0003 0C42.421 0 34.9332 1.93873 28.3459 5.60675C27.4896 6.08357 27.1809 7.16606 27.6563 8.02491C28.1314 8.88329 29.2109 9.19297 30.0669 8.71662C36.1289 5.34104 43.0217 3.55691 50.0003 3.55691C72.6791 3.55691 91.1293 22.0632 91.1293 44.81C91.1293 67.5571 72.6791 86.0634 50.0003 86.0634C27.3215 86.0634 8.87129 67.5571 8.87129 44.8098C8.87129 32.6067 14.2156 21.0965 23.5344 13.231C24.2835 12.5986 24.3797 11.4766 23.7493 10.7253C23.1188 9.97381 22.0004 9.87689 21.2512 10.5097C11.1301 19.0526 5.32525 31.5545 5.32525 44.8098C5.32525 56.7448 10.002 67.6042 17.613 75.6433L12.705 84.1696C11.5289 86.1436 14.6409 87.9686 15.7759 85.948L20.2375 78.1971C25.5752 82.9892 32.064 86.5149 39.2312 88.301L23.9315 114.881L20.0179 102.526C19.7406 101.65 18.8432 101.131 17.9482 101.327L5.32407 104.105L11.6384 93.1354C12.128 92.2848 11.8374 91.1971 10.9894 90.7061C10.1412 90.2151 9.0571 90.5064 8.56751 91.3569L0.24426 105.817C-0.545323 107.087 0.708554 108.813 2.15959 108.443L17.1279 105.149L21.7682 119.798C22.1739 121.239 24.2849 121.474 24.9934 120.149L42.8936 89.0508C45.2084 89.4236 47.5814 89.6201 49.9996 89.6201C52.4376 89.6201 54.8295 89.4201 57.1626 89.0414L67.9134 107.719C68.2418 108.289 68.8378 108.608 69.4505 108.608C69.7512 108.608 70.0562 108.531 70.3354 108.37C71.1834 107.878 71.4739 106.791 70.9843 105.94L60.8233 88.2875C67.9874 86.4925 74.4717 82.959 79.8035 78.1602L94.6754 103.997L82.0512 101.219C81.1562 101.022 80.2591 101.542 79.9815 102.417L76.0679 114.772L75.1213 113.128C74.6318 112.277 73.5474 111.986 72.6994 112.477C71.8514 112.968 71.5609 114.056 72.0505 114.906L75.0058 120.041C75.7145 121.366 77.8253 121.131 78.231 119.69L82.8713 105.041L97.8396 108.335C99.2921 108.703 100.545 106.978 99.7559 105.708Z" fill="white"/>
</svg>
