<svg width="103" height="103" viewBox="0 0 103 103" fill="none" xmlns="http://www.w3.org/2000/svg">
<path d="M63.4852 41.6852C62.7111 41.6929 61.9471 41.8557 61.2413 42.1633H48.6236L47.7308 39.2833H65.2155C65.9684 39.2938 66.7046 39.0681 67.3141 38.64C67.9236 38.2119 68.3737 37.6044 68.597 36.9081L72.6225 23.2462C72.7655 22.7674 72.7855 22.2621 72.6809 21.7742C72.5762 21.2863 72.3501 20.8305 72.0221 20.4464C71.6875 20.0495 71.2656 19.7298 70.7872 19.5108C70.3088 19.2918 69.7859 19.1789 69.2567 19.1805H41.8367C41.734 19.1805 41.6431 19.2378 41.5404 19.2416L40.1657 14.7935C40.028 14.3818 39.7577 14.0238 39.3944 13.7718C39.031 13.5199 38.5938 13.3873 38.147 13.3936H32.3398C31.8011 13.3812 31.279 13.5751 30.887 13.9332C30.495 14.2912 30.2647 14.7845 30.2461 15.306C30.2596 15.8308 30.4876 16.329 30.8802 16.6912C31.2728 17.0533 31.7977 17.2498 32.3398 17.2375H36.5629L44.2228 41.9759C43.1547 42.2585 42.2096 42.8677 41.5283 43.7127C40.847 44.5577 40.4661 45.5933 40.4422 46.665C40.4743 48.0254 41.0627 49.3179 42.0781 50.2587C43.0936 51.1995 44.4531 51.7118 45.8583 51.6831C47.2615 51.715 48.6205 51.2072 49.6379 50.271C50.6552 49.3348 51.2479 48.0464 51.2862 46.688C51.2535 46.4619 51.2046 46.2382 51.14 46.0187H58.1797C58.1152 46.2382 58.0663 46.4619 58.0335 46.688C58.0718 48.0464 58.6645 49.3348 59.6818 50.271C60.6992 51.2072 62.0583 51.715 63.4615 51.6831C64.8647 51.715 66.2237 51.2072 67.241 50.271C68.2584 49.3348 68.8511 48.0464 68.8894 46.688C68.8562 45.3313 68.2686 44.0427 67.2555 43.1049C66.2424 42.167 64.8865 41.6565 63.4852 41.6852V41.6852ZM68.3521 23.0473L64.7019 35.4279H46.6088L42.7611 23.0473H68.3521ZM45.878 47.8316C45.7189 47.8351 45.5607 47.8082 45.4124 47.7524C45.264 47.6967 45.1285 47.6131 45.0137 47.5065C44.8988 47.3998 44.8068 47.2723 44.7429 47.1312C44.6791 46.9901 44.6446 46.8382 44.6415 46.6842C44.6446 46.5301 44.6791 46.3782 44.7429 46.2371C44.8068 46.096 44.8988 45.9685 45.0137 45.8619C45.1285 45.7552 45.264 45.6717 45.4124 45.6159C45.5607 45.5601 45.7189 45.5332 45.878 45.5367C46.199 45.5306 46.5094 45.6479 46.7412 45.863C46.973 46.0781 47.1073 46.3734 47.1145 46.6842C47.1104 46.8394 47.0746 46.9922 47.0091 47.134C46.9436 47.2757 46.8497 47.4034 46.7329 47.5098C46.6161 47.6161 46.4786 47.699 46.3285 47.7536C46.1783 47.8081 46.0185 47.8334 45.8583 47.8278L45.878 47.8316ZM63.4852 47.8316C63.1642 47.8377 62.8537 47.7204 62.622 47.5053C62.3902 47.2902 62.2559 46.9949 62.2487 46.6842C62.2559 46.3734 62.3902 46.0781 62.622 45.863C62.8537 45.6479 63.1642 45.5306 63.4852 45.5367C63.6442 45.5332 63.8025 45.5601 63.9508 45.6159C64.0991 45.6717 64.2346 45.7552 64.3495 45.8619C64.4644 45.9685 64.5564 46.096 64.6202 46.2371C64.6841 46.3782 64.7186 46.5301 64.7217 46.6842C64.7181 46.8379 64.6832 46.9894 64.6191 47.13C64.555 47.2707 64.4629 47.3978 64.3481 47.504C64.2333 47.6102 64.098 47.6934 63.9499 47.749C63.8018 47.8045 63.6439 47.8313 63.4852 47.8278V47.8316Z" fill="white"/>
<path d="M58.4908 66.6147C58.4908 67.6818 57.2819 68.5462 55.7887 68.5462H23.0869C21.5936 68.5462 20.3848 67.6818 20.3848 66.6147C20.3848 65.5476 21.5936 64.7023 23.0869 64.7023H55.7847C57.278 64.687 58.4908 65.5553 58.4908 66.6147Z" fill="white"/>
<path d="M82.6165 66.6147C82.6165 67.6818 81.4077 68.5462 79.9184 68.5462H71.3262C69.8329 68.5462 68.624 67.6818 68.624 66.6147C68.624 65.5476 69.8329 64.7023 71.3262 64.7023H79.9026C81.4077 64.687 82.6165 65.5553 82.6165 66.6147Z" fill="white"/>
<path d="M58.4908 75.9051C58.4908 76.9684 57.2819 77.8175 55.7887 77.8175H23.0869C21.5936 77.8175 20.3848 76.9531 20.3848 75.9051C20.3848 74.8571 21.5936 73.9736 23.0869 73.9736H55.7847C57.278 73.9736 58.4908 74.8342 58.4908 75.9051Z" fill="white"/>
<path d="M82.6165 75.9051C82.6165 76.9684 81.4077 77.8175 79.9184 77.8175H71.3262C69.8329 77.8175 68.624 76.9531 68.624 75.9051C68.624 74.8571 69.8329 73.9736 71.3262 73.9736H79.9026C81.4077 73.9736 82.6165 74.8342 82.6165 75.9051Z" fill="white"/>
<path d="M58.4908 84.4648C58.4908 85.5281 57.2819 86.3772 55.7887 86.3772H23.0869C21.5936 86.3772 20.3848 85.5128 20.3848 84.4648C20.3848 83.4168 21.5936 82.5524 23.0869 82.5524H55.7847C57.278 82.5371 58.4908 83.3977 58.4908 84.4648Z" fill="white"/>
<path d="M82.6165 84.4648C82.6165 85.5281 81.4077 86.3772 79.9184 86.3772H71.3262C69.8329 86.3772 68.624 85.5128 68.624 84.4648C68.624 83.4168 69.8329 82.5524 71.3262 82.5524H79.9026C81.4077 82.5371 82.6165 83.3977 82.6165 84.4648Z" fill="white"/>
<path d="M102.147 4.49351L97.0111 0.49665C96.4369 0.186533 95.7933 0.0164636 95.136 0.00113665C94.4787 -0.0141903 93.8274 0.125687 93.2384 0.408682L87.451 3.38815L82.7105 0.508125C82.135 0.194564 81.4891 0.0216238 80.829 0.00429543C80.1688 -0.0130329 79.5143 0.125773 78.922 0.408682L73.1386 3.38815L68.398 0.508125C67.8228 0.193614 67.1769 0.020126 66.5165 0.00279264C65.8562 -0.0145407 65.2015 0.124807 64.6096 0.408682L58.8261 3.38815L54.0856 0.508125C53.5109 0.194265 52.8657 0.0211346 52.2061 0.00380301C51.5465 -0.0135285 50.8925 0.125464 50.301 0.408682L44.5018 3.38815L39.7612 0.508125C39.187 0.194915 38.5425 0.0221432 37.8837 0.00481339C37.2248 -0.0125164 36.5716 0.12612 35.9807 0.408682L30.1933 3.38815L25.4527 0.508125C24.8777 0.195213 24.2326 0.0226324 23.5732 0.00530581C22.9138 -0.0120208 22.2599 0.126428 21.6682 0.408682L15.8808 3.38815L11.1403 0.508125C10.566 0.194915 9.92155 0.0221432 9.26272 0.00481339C8.60388 -0.0125164 7.95064 0.12612 7.35971 0.408682L1.03897 4.40553C0.753316 4.51819 0.505258 4.70487 0.32198 4.94506C0.138702 5.18525 0.0272856 5.46968 0 5.76714V97.2243C0.0260581 97.5235 0.136846 97.81 0.320142 98.0522C0.503437 98.2945 0.752146 98.4831 1.03897 98.5974L7.35971 102.594C7.92096 102.867 8.5412 103.006 9.16901 103C9.86317 103.009 10.5466 102.833 11.1442 102.491L15.8848 99.6109L21.6682 102.59C22.2295 102.863 22.8497 103.002 23.4775 102.996C24.1717 103.005 24.855 102.829 25.4527 102.487L30.1933 99.6071L35.9767 102.587C36.5382 102.862 37.1603 103.003 37.79 102.996C38.4841 103.005 39.1675 102.829 39.7652 102.487L44.5057 99.6071L50.2931 102.587C50.8544 102.859 51.4746 102.998 52.1024 102.992C52.7966 103.001 53.48 102.825 54.0777 102.483L58.8182 99.6033L64.6017 102.583C65.1629 102.855 65.7832 102.994 66.411 102.988C67.1051 102.997 67.7885 102.821 68.3862 102.479L73.1267 99.5994L78.9102 102.579C79.4702 102.855 80.0911 102.996 80.7195 102.988C81.4136 102.997 82.097 102.821 82.6947 102.479L87.4352 99.5994L93.2187 102.579C93.7811 102.852 94.4028 102.991 95.0319 102.984C95.7259 102.992 96.4089 102.816 97.0071 102.476L102.143 98.4788C102.386 98.3558 102.592 98.1745 102.742 97.9521C102.893 97.7298 102.981 97.4739 103 97.209V5.76331C102.988 5.49717 102.902 5.23903 102.752 5.01573C102.602 4.79242 102.393 4.6121 102.147 4.49351V4.49351ZM98.7572 96.4785L94.8818 98.8383L89.0984 95.8589C88.9701 95.8064 88.8381 95.7629 88.7033 95.7288C88.5502 95.666 88.3932 95.6124 88.2332 95.5682C88.0329 95.5268 87.8294 95.5012 87.6248 95.4917C87.4787 95.4917 87.3365 95.4649 87.1863 95.4649C86.9742 95.4725 86.7629 95.4955 86.5543 95.5337C86.416 95.5605 86.2698 95.5758 86.1355 95.6102C85.9529 95.6681 85.7759 95.741 85.6062 95.8283C85.4974 95.8617 85.3917 95.904 85.2901 95.9545L80.5496 98.8345L74.7622 95.855C74.6343 95.8017 74.5022 95.7582 74.3672 95.725C74.2159 95.6619 74.0601 95.6095 73.901 95.5682C73.698 95.5271 73.4919 95.5015 73.2847 95.4917C73.1346 95.4917 72.9963 95.4649 72.8462 95.4649C72.6341 95.4725 72.4228 95.4955 72.2142 95.5337C72.068 95.5605 71.9258 95.5796 71.7875 95.6102C71.6067 95.6693 71.431 95.7422 71.2621 95.8283C71.1533 95.8617 71.0476 95.904 70.9461 95.9545L66.2055 98.8307L60.4221 95.8512C60.2993 95.8029 60.1741 95.7608 60.0468 95.725C59.8938 95.6627 59.7368 95.6103 59.5767 95.5682C59.3764 95.525 59.173 95.4969 58.9683 95.484C58.8182 95.484 58.6799 95.4573 58.5298 95.4573C58.3175 95.4658 58.1062 95.4901 57.8978 95.5299C57.7554 95.5475 57.6143 95.573 57.4751 95.6064C57.2917 95.6607 57.1144 95.7325 56.9457 95.8206C56.8389 95.8576 56.7347 95.901 56.6336 95.9506L51.8931 98.8268L46.1096 95.8474C45.9869 95.7991 45.8616 95.7569 45.7343 95.7212C45.5826 95.6558 45.4253 95.6034 45.2642 95.5644C45.0613 95.521 44.8553 95.4929 44.6479 95.4802C44.4978 95.4802 44.3517 95.4534 44.2094 95.4534C43.9971 95.4617 43.7858 95.486 43.5774 95.5261C43.4273 95.5529 43.289 95.5682 43.1507 95.6026C42.9651 95.6591 42.7852 95.7321 42.6135 95.8206C42.5085 95.8542 42.4068 95.8964 42.3093 95.9468L37.5687 98.823L31.7853 95.8436C31.6668 95.7862 31.5285 95.7671 31.3903 95.7173C31.2403 95.6512 31.0842 95.5987 30.9241 95.5605C30.7213 95.5165 30.5153 95.4883 30.3078 95.4764C30.1617 95.4764 30.0195 95.4496 29.8733 95.4496C29.661 95.4578 29.4496 95.4821 29.2412 95.5223C29.0976 95.5399 28.9552 95.5654 28.8146 95.5988C28.6313 95.6531 28.4539 95.7248 28.2852 95.813C28.1772 95.85 28.0717 95.8934 27.9692 95.943L23.2286 98.8192L17.4412 95.8397C17.3188 95.7906 17.1935 95.7485 17.0659 95.7135C16.9148 95.6466 16.7574 95.5941 16.5958 95.5567C16.393 95.513 16.187 95.4849 15.9796 95.4726C15.8295 95.4726 15.6912 95.4458 15.5411 95.4458C15.3288 95.4546 15.1175 95.4789 14.909 95.5185C14.7628 95.5452 14.6206 95.5605 14.4823 95.595C14.304 95.6538 14.1309 95.7267 13.9648 95.813C13.8548 95.8465 13.7478 95.8887 13.6448 95.9392L8.90433 98.8192L4.16377 96.379V6.59711L8.90433 4.15692L13.6448 7.03313C13.8096 7.11816 13.9814 7.1898 14.1584 7.24731C14.2764 7.30287 14.3978 7.35141 14.5218 7.39265C14.8311 7.46669 15.1476 7.50899 15.466 7.51887C15.5253 7.51887 15.5766 7.538 15.6319 7.538C15.6872 7.54081 15.7426 7.54081 15.7978 7.538C16.0827 7.53106 16.3661 7.49517 16.6432 7.4309C16.7539 7.40031 16.8526 7.35441 16.9593 7.31616C17.1188 7.27309 17.2747 7.2181 17.4254 7.1517L23.2128 4.17223L27.9534 7.05225C28.1181 7.13731 28.2899 7.20895 28.4669 7.26643C28.5894 7.30851 28.6961 7.37353 28.8304 7.41178C29.1403 7.48985 29.4584 7.53348 29.7785 7.54182C29.8338 7.54182 29.8851 7.56095 29.9404 7.56095H29.9602C30.0155 7.56095 30.0669 7.56095 30.1261 7.56095C30.4097 7.55411 30.6918 7.51821 30.9676 7.45385C31.0782 7.42325 31.1769 7.37736 31.2836 7.33911C31.4441 7.29513 31.6012 7.24017 31.7537 7.17464L37.5372 4.19517L42.2777 7.0752C42.4377 7.15944 42.6057 7.22861 42.7794 7.28174C42.9098 7.32764 43.0164 7.39648 43.1468 7.4309C43.4569 7.50736 43.775 7.5497 44.0949 7.55712C44.1498 7.56636 44.2052 7.57275 44.2608 7.57624C44.3201 7.57624 44.3675 7.57624 44.4267 7.55712C44.7103 7.55025 44.9924 7.51436 45.2682 7.45002C45.3773 7.41862 45.4842 7.3803 45.5881 7.33529C45.7463 7.28951 45.9019 7.23589 46.0543 7.17464L51.8378 4.19517L56.5783 7.07138C56.7431 7.15643 56.9148 7.22807 57.0919 7.28556C57.2098 7.34113 57.3312 7.38967 57.4553 7.4309C57.762 7.51129 58.0778 7.55497 58.3955 7.56095C58.4548 7.56095 58.5022 7.58007 58.5614 7.58007C58.6207 7.58007 58.6681 7.58007 58.7273 7.58007C59.0112 7.57067 59.2933 7.5322 59.5688 7.46532C59.6785 7.43562 59.7855 7.39724 59.8888 7.35058C60.0479 7.30796 60.2037 7.25428 60.3549 7.18995L66.1384 4.21047L70.8789 7.0905C71.0431 7.1718 71.2135 7.24085 71.3885 7.29704C71.5079 7.35254 71.6306 7.40107 71.7559 7.44238C72.064 7.52274 72.381 7.5664 72.7001 7.57241C72.7593 7.57241 72.8107 7.59154 72.866 7.59154C72.9212 7.59435 72.9767 7.59435 73.0319 7.59154C73.3168 7.58458 73.6002 7.54868 73.8773 7.48445C73.9879 7.45385 74.0867 7.40795 74.1933 7.3697C74.3529 7.32662 74.5087 7.27163 74.6595 7.20524L80.4469 4.22577L85.1874 7.1058C85.2934 7.15671 85.4029 7.20018 85.5153 7.23584C85.6784 7.32232 85.8505 7.39157 86.0289 7.44238C86.1784 7.48012 86.3301 7.50949 86.4832 7.53034C86.6815 7.56669 86.8821 7.58969 87.0837 7.59919C87.2355 7.59689 87.3872 7.58668 87.5379 7.56859C87.7412 7.55907 87.9434 7.53349 88.1424 7.49209C88.3017 7.45167 88.4576 7.39924 88.6085 7.33529C88.7432 7.30119 88.8753 7.25773 89.0036 7.20524L94.787 4.22577L98.6624 6.58563V96.4785H98.7572Z" fill="white"/>
</svg>
