<svg width="91" height="101" viewBox="0 0 91 101" fill="none" xmlns="http://www.w3.org/2000/svg">
<path d="M35.4748 1.04054C33.4295 1.03788 31.4039 1.45251 29.5137 2.26068C27.6235 3.06886 25.906 4.25472 24.4593 5.75039C23.0127 7.24607 21.8653 9.0222 21.0829 10.9771C20.3006 12.9321 19.8985 15.0274 19.8998 17.1433V28.6472H7.68648C7.40849 28.6459 7.1401 28.7524 6.93413 28.9455C6.72816 29.1386 6.59952 29.4045 6.57351 29.6909L1.02496 98.7042C1.01709 98.8627 1.03974 99.0213 1.09159 99.1707C1.14344 99.3201 1.22346 99.4573 1.327 99.5744C1.43055 99.6916 1.55555 99.7863 1.69476 99.853C1.83396 99.9198 1.9846 99.9573 2.13793 99.9633H68.8214C68.9746 99.9568 69.125 99.9191 69.264 99.8521C69.403 99.7852 69.5279 99.6905 69.6313 99.5735C69.7348 99.4564 69.8148 99.3194 69.8668 99.1702C69.9188 99.021 69.9418 98.8626 69.9344 98.7042L69.6578 95.3611H67.4351L67.6076 97.6605H3.34527L8.72784 30.9466H19.8998V40.2555C18.5501 40.5404 17.3508 41.3336 16.5344 42.4814C15.718 43.6291 15.3425 45.0496 15.4809 46.4674C15.6194 47.8852 16.2617 49.1994 17.2835 50.1551C18.3053 51.1108 19.6337 51.6399 21.0111 51.6399C22.3886 51.6399 23.717 51.1108 24.7388 50.1551C25.7605 49.1994 26.4029 47.8852 26.5413 46.4674C26.6797 45.0496 26.3043 43.6291 25.4879 42.4814C24.6714 41.3336 23.4721 40.5404 22.1225 40.2555V30.9466H48.8076V37.8483H51.0302V30.9466H62.2152L62.7717 37.8483H65.0302L64.3793 29.6875C64.3451 29.4046 64.2141 29.1437 64.0099 28.9522C63.8057 28.7607 63.5419 28.6513 63.2663 28.6438H51.0368V17.1433C51.038 15.0286 50.6364 12.9343 49.8548 10.9803C49.0733 9.02619 47.9271 7.25066 46.4818 5.75516C45.0365 4.25966 43.3205 3.07352 41.4319 2.26455C39.5432 1.45559 37.5189 1.03965 35.4748 1.04054V1.04054ZM35.4748 3.33997C37.229 3.3324 38.9673 3.68427 40.5894 4.37527C42.2115 5.06627 43.6853 6.08272 44.9257 7.36599C46.1661 8.64926 47.1487 10.1739 47.8166 11.8521C48.4845 13.5302 48.8247 15.3285 48.8173 17.1433V28.6472H22.1322V17.1433C22.1249 15.3285 22.465 13.5302 23.133 11.8521C23.8009 10.1739 24.7834 8.64926 26.0238 7.36599C27.2643 6.08272 28.7381 5.06627 30.3602 4.37527C31.9823 3.68427 33.7206 3.3324 35.4748 3.33997V3.33997ZM21.0258 42.4505C21.6855 42.4505 22.3304 42.6529 22.879 43.0321C23.4275 43.4113 23.855 43.9502 24.1075 44.5808C24.36 45.2114 24.426 45.9052 24.2973 46.5746C24.1686 47.244 23.8509 47.8589 23.3844 48.3415C22.9179 48.8241 22.3236 49.1527 21.6765 49.2859C21.0295 49.4191 20.3588 49.3507 19.7493 49.0895C19.1398 48.8283 18.6188 48.386 18.2523 47.8185C17.8858 47.2511 17.6901 46.5839 17.6901 45.9014C17.688 45.4476 17.7728 44.9978 17.9397 44.5782C18.1065 44.1585 18.3521 43.7772 18.6623 43.4563C18.9725 43.1354 19.3411 42.8813 19.7467 42.7087C20.1524 42.536 20.5871 42.4483 21.0258 42.4505ZM43.2558 41.1914L38.8104 91.8025C38.8025 91.961 38.8252 92.1196 38.877 92.269C38.9289 92.4184 39.0089 92.5556 39.1125 92.6728C39.216 92.7899 39.341 92.8846 39.4802 92.9514C39.6194 93.0181 39.7701 93.0556 39.9234 93.0616H88.832C88.9852 93.0552 89.1356 93.0174 89.2746 92.9505C89.4136 92.8836 89.5384 92.7889 89.6419 92.6718C89.7454 92.5548 89.8254 92.4177 89.8774 92.2685C89.9294 92.1193 89.9524 91.9609 89.9449 91.8025L85.4963 41.1914C85.4622 40.9085 85.3311 40.6476 85.1269 40.4561C84.9227 40.2646 84.6589 40.1552 84.3834 40.1477H44.3557C44.0794 40.1524 43.8141 40.2608 43.6094 40.4529C43.4046 40.6449 43.2743 40.9074 43.2427 41.1914H43.2558ZM45.3743 42.4505H83.3778L87.6084 90.7622H41.1372L45.3743 42.4505ZM53.2594 47.0528C52.9643 47.0528 52.6812 47.1741 52.4724 47.39C52.2637 47.6059 52.1465 47.8988 52.1465 48.2042V52.8064C52.1465 56.1615 53.4348 59.3791 55.7279 61.7515C58.0211 64.1239 61.1314 65.4567 64.3744 65.4567C67.6175 65.4567 70.7277 64.1239 73.0209 61.7515C75.3141 59.3791 76.6024 56.1615 76.6024 52.8064V48.2008C76.6106 48.0446 76.5879 47.8883 76.5357 47.7414C76.4836 47.5946 76.403 47.4603 76.299 47.3467C76.195 47.2331 76.0697 47.1427 75.9308 47.0809C75.7919 47.019 75.6423 46.9872 75.491 46.9872C75.3398 46.9872 75.1902 47.019 75.0513 47.0809C74.9124 47.1427 74.7871 47.2331 74.6831 47.3467C74.5791 47.4603 74.4985 47.5946 74.4464 47.7414C74.3942 47.8883 74.3715 48.0446 74.3797 48.2008V52.803C74.3797 55.5478 73.3258 58.1801 71.4497 60.121C69.5737 62.0618 67.0292 63.1522 64.3761 63.1522C61.7229 63.1522 59.1784 62.0618 57.3024 60.121C55.4263 58.1801 54.3724 55.5478 54.3724 52.803V48.2008C54.3724 47.8954 54.2551 47.6026 54.0464 47.3866C53.8377 47.1707 53.5546 47.0494 53.2594 47.0494V47.0528Z" fill="white"/>
<path d="M1.95728 101C1.68683 100.994 1.42031 100.932 1.17389 100.816C0.927473 100.701 0.706276 100.535 0.523708 100.328C0.34114 100.122 0.201002 99.8792 0.11179 99.615C0.0225777 99.3508 -0.0138512 99.0707 0.0047091 98.7915L5.58255 29.5425C5.62653 29.0389 5.85152 28.5706 6.21304 28.2303C6.57456 27.8899 7.04632 27.7022 7.53512 27.7043H18.9837V17.0252C18.9837 12.5099 20.7175 8.17943 23.8038 4.98658C26.8901 1.79373 31.0759 0 35.4406 0C39.8052 0 43.9911 1.79373 47.0774 4.98658C50.1636 8.17943 51.8975 12.5099 51.8975 17.0252V27.7009H63.3428C63.8281 27.7077 64.2943 27.8975 64.6538 28.2347C65.0133 28.572 65.2415 29.0334 65.2954 29.5324L66.0341 38.6662H62.0736L61.5171 31.7409H51.8942V38.6662H47.9891V31.7443H22.8856V39.5583C24.3429 40.0401 25.5857 41.045 26.3898 42.3915C27.1939 43.738 27.5063 45.3375 27.2706 46.9013C27.0349 48.4651 26.2667 49.8904 25.1046 50.9197C23.9424 51.9491 22.4629 52.5148 20.933 52.5148C19.4031 52.5148 17.9236 51.9491 16.7614 50.9197C15.5993 49.8904 14.831 48.4651 14.5954 46.9013C14.3597 45.3375 14.6721 43.738 15.4762 42.3915C16.2803 41.045 17.5231 40.0401 18.9804 39.5583V31.7477H9.35751L4.08883 96.96H66.7858L66.6101 94.6505H70.5152L70.8602 98.7982C70.8773 99.0767 70.8399 99.356 70.7501 99.6192C70.6603 99.8824 70.52 100.124 70.3376 100.33C70.1552 100.535 69.9345 100.701 69.6888 100.816C69.443 100.931 69.1773 100.994 68.9076 101H1.95728ZM7.54488 29.4348C7.50801 29.4339 7.47134 29.4406 7.43702 29.4546C7.40271 29.4686 7.37144 29.4895 7.34506 29.5162C7.31868 29.5428 7.29772 29.5747 7.28342 29.6098C7.26911 29.645 7.26175 29.6828 7.26176 29.7209L1.68392 98.943C1.68385 98.9831 1.6916 99.0229 1.70669 99.0599C1.72179 99.097 1.74392 99.1304 1.77178 99.1584C1.81917 99.2179 1.88666 99.2564 1.96053 99.2662H68.9109C68.9872 99.2562 69.0571 99.2164 69.1061 99.1551C69.1588 99.1004 69.1891 99.0269 69.1907 98.9497L68.9792 96.3809H68.4195L68.5919 98.6905H2.2762L7.80847 30.0105H20.6531V40.9252L19.986 41.0666C18.8345 41.3094 17.8113 41.9859 17.1146 42.9649C16.4179 43.944 16.0975 45.1558 16.2154 46.3653C16.3334 47.5749 16.8813 48.6961 17.753 49.5114C18.6246 50.3268 19.7579 50.7782 20.933 50.7782C22.1081 50.7782 23.2414 50.3268 24.113 49.5114C24.9847 48.6961 25.5326 47.5749 25.6505 46.3653C25.7685 45.1558 25.4481 43.944 24.7514 42.9649C24.0547 41.9859 23.0314 41.3094 21.88 41.0666L21.2129 40.9252V30.0105H49.6488V36.9357H50.2052V30.0105H63.0564L63.6129 36.9357H64.1987L63.6129 29.6839C63.5969 29.6178 63.5619 29.5583 63.5125 29.5132C63.4631 29.4681 63.4017 29.4396 63.3363 29.4314H50.2215V17.0252C50.2215 12.9688 48.6639 9.07853 45.8913 6.2102C43.1188 3.34188 39.3583 1.73047 35.4373 1.73047C31.5163 1.73047 27.7559 3.34188 24.9833 6.2102C22.2107 9.07853 20.6531 12.9688 20.6531 17.0252V29.4348H7.54488ZM39.8924 94.0748C39.622 94.069 39.3555 94.0066 39.109 93.8911C38.8626 93.7757 38.6414 93.6097 38.4589 93.4032C38.2763 93.1967 38.1362 92.954 38.0469 92.6898C37.9577 92.4256 37.9213 92.1454 37.9399 91.8662L42.4112 41.0296C42.4697 40.5427 42.6975 40.0945 43.052 39.7686C43.4065 39.4428 43.8636 39.2615 44.3378 39.2587H84.5281C85.0134 39.2654 85.4796 39.4553 85.8392 39.7925C86.1987 40.1297 86.4268 40.5912 86.4807 41.0902L90.9423 91.8797C90.9604 92.1588 90.9237 92.4388 90.8343 92.7027C90.7449 92.9667 90.6047 93.2092 90.4223 93.4156C90.2398 93.622 90.0188 93.788 89.7726 93.9036C89.5264 94.0192 89.2601 94.082 88.9898 94.0882H39.8859L39.8924 94.0748ZM44.0774 41.2753L39.6191 92.0245C39.622 92.1027 39.6512 92.1775 39.7017 92.2359C39.7522 92.2943 39.8208 92.3326 39.8957 92.3443H88.993C89.0694 92.3343 89.1392 92.2946 89.1883 92.2332C89.241 92.1786 89.2713 92.105 89.2729 92.0278L84.8113 41.2417C84.7964 41.1743 84.7619 41.1133 84.7125 41.0669C84.663 41.0206 84.6009 40.9911 84.5347 40.9824H44.3638C44.1783 40.9791 44.1165 41.1339 44.0774 41.2753ZM88.6904 91.7753H40.2114L44.6176 41.5649H84.2841L88.6904 91.7753ZM42.037 90.0449H86.8582L82.7578 43.2953H46.1374L42.037 90.0449ZM64.446 66.3806C60.9697 66.377 57.6367 64.9468 55.1786 62.4037C52.7204 59.8607 51.3379 56.4126 51.3345 52.8163V48.1905C51.3345 47.6547 51.5402 47.1409 51.9064 46.7621C52.2726 46.3833 52.7692 46.1705 53.2871 46.1705C53.8049 46.1705 54.3016 46.3833 54.6677 46.7621C55.0339 47.1409 55.2396 47.6547 55.2396 48.1905V52.8062C55.2166 54.0718 55.4377 55.3294 55.89 56.5056C56.3422 57.6818 57.0165 58.7529 57.8736 59.6563C58.7306 60.5598 59.7531 61.2774 60.8813 61.7673C62.0095 62.2572 63.2208 62.5095 64.4444 62.5095C65.6679 62.5095 66.8792 62.2572 68.0074 61.7673C69.1356 61.2774 70.1581 60.5598 71.0151 59.6563C71.8722 58.7529 72.5465 57.6818 72.9988 56.5056C73.451 55.3294 73.6721 54.0718 73.6491 52.8062V48.1905C73.6491 47.6547 73.8548 47.1409 74.221 46.7621C74.5872 46.3833 75.0838 46.1705 75.6017 46.1705C76.1195 46.1705 76.6162 46.3833 76.9823 46.7621C77.3485 47.1409 77.5542 47.6547 77.5542 48.1905V52.8062C77.5508 56.402 76.1687 59.8495 73.7113 62.3925C71.2539 64.9354 67.9217 66.366 64.446 66.3705V66.3806ZM53.2871 47.911C53.2128 47.911 53.1416 47.9415 53.0892 47.9958C53.0367 48.0501 53.0072 48.1238 53.0072 48.2006V52.8163C53.0072 55.9543 54.2122 58.9639 56.3571 61.1829C58.5019 63.4018 61.411 64.6484 64.4444 64.6484C67.4777 64.6484 70.3868 63.4018 72.5317 61.1829C74.6765 58.9639 75.8815 55.9543 75.8815 52.8163V48.1905C75.8815 47.8706 75.325 47.8706 75.325 48.1905V52.8062C75.325 55.7911 74.1789 58.6538 72.1386 60.7645C70.0984 62.8752 67.3313 64.0609 64.446 64.0609C61.5607 64.0609 58.7935 62.8752 56.7533 60.7645C54.7131 58.6538 53.5669 55.7911 53.5669 52.8062V48.1905C53.5661 48.1148 53.5367 48.0426 53.485 47.9891C53.4333 47.9356 53.3634 47.9052 53.2903 47.9043L53.2871 47.911ZM20.9297 50.2206C20.102 50.2206 19.2929 49.9666 18.6047 49.4909C17.9165 49.0152 17.38 48.339 17.0633 47.5479C16.7465 46.7568 16.6637 45.8862 16.8251 45.0464C16.9866 44.2065 17.3852 43.4351 17.9705 42.8296C18.5558 42.2241 19.3015 41.8117 20.1133 41.6447C20.9251 41.4776 21.7666 41.5634 22.5313 41.8911C23.296 42.2188 23.9496 42.7737 24.4094 43.4857C24.8693 44.1977 25.1147 45.0347 25.1147 45.891C25.1113 47.0367 24.6694 48.1343 23.8857 48.9438C23.1021 49.7533 22.0404 50.2087 20.933 50.2105L20.9297 50.2206ZM20.9297 43.2953C20.4335 43.2953 19.9484 43.4476 19.5358 43.7328C19.1232 44.018 18.8016 44.4234 18.6117 44.8977C18.4218 45.372 18.3721 45.8939 18.4689 46.3974C18.5657 46.9009 18.8047 47.3635 19.1556 47.7265C19.5065 48.0895 19.9535 48.3367 20.4402 48.4369C20.927 48.537 21.4314 48.4856 21.8899 48.2891C22.3484 48.0927 22.7402 47.76 23.0159 47.3331C23.2916 46.9063 23.4388 46.4044 23.4388 45.891C23.4436 45.5486 23.3821 45.2086 23.2581 44.8911C23.134 44.5736 22.9498 44.285 22.7163 44.0422C22.4829 43.7994 22.2048 43.6074 21.8986 43.4774C21.5923 43.3474 21.264 43.2821 20.933 43.2852L20.9297 43.2953ZM49.6488 29.4348H21.2129V17.0252C21.2129 13.1219 22.7117 9.37851 25.3796 6.61847C28.0475 3.85843 31.666 2.30785 35.4389 2.30785C39.2119 2.30785 42.8304 3.85843 45.4983 6.61847C48.1662 9.37851 49.665 13.1219 49.665 17.0252L49.6488 29.4348ZM22.8693 27.7043H47.9891V17.0252C47.9891 13.5813 46.6667 10.2785 44.3128 7.84329C41.9588 5.40808 38.7663 4.04 35.4373 4.04C32.1084 4.04 28.9158 5.40808 26.5619 7.84329C24.208 10.2785 22.8856 13.5813 22.8856 17.0252L22.8693 27.7043Z" fill="white"/>
</svg>
