<svg width="100" height="108" viewBox="0 0 100 108" fill="none" xmlns="http://www.w3.org/2000/svg">
<path d="M10.7146 98.2144H7.14314C6.66954 98.2144 6.21533 98.4025 5.88045 98.7374C5.54556 99.0723 5.35742 99.5265 5.35742 100C5.35742 100.474 5.54556 100.928 5.88045 101.263C6.21533 101.598 6.66954 101.786 7.14314 101.786H10.7146C11.1882 101.786 11.6424 101.598 11.9773 101.263C12.3121 100.928 12.5003 100.474 12.5003 100C12.5003 99.5265 12.3121 99.0723 11.9773 98.7374C11.6424 98.4025 11.1882 98.2144 10.7146 98.2144Z" fill="white"/>
<path d="M10.7146 92.8567H7.14314C6.66954 92.8567 6.21533 93.0448 5.88045 93.3797C5.54556 93.7146 5.35742 94.1688 5.35742 94.6424C5.35742 95.116 5.54556 95.5702 5.88045 95.9051C6.21533 96.24 6.66954 96.4281 7.14314 96.4281H10.7146C11.1882 96.4281 11.6424 96.24 11.9773 95.9051C12.3121 95.5702 12.5003 95.116 12.5003 94.6424C12.5003 94.1688 12.3121 93.7146 11.9773 93.3797C11.6424 93.0448 11.1882 92.8567 10.7146 92.8567Z" fill="white"/>
<path d="M42.8571 98.2144H39.2857C38.8121 98.2144 38.3579 98.4025 38.023 98.7374C37.6881 99.0723 37.5 99.5265 37.5 100C37.5 100.474 37.6881 100.928 38.023 101.263C38.3579 101.598 38.8121 101.786 39.2857 101.786H42.8571C43.3307 101.786 43.7849 101.598 44.1198 101.263C44.4547 100.928 44.6429 100.474 44.6429 100C44.6429 99.5265 44.4547 99.0723 44.1198 98.7374C43.7849 98.4025 43.3307 98.2144 42.8571 98.2144Z" fill="white"/>
<path d="M42.8571 92.8567H39.2857C38.8121 92.8567 38.3579 93.0448 38.023 93.3797C37.6881 93.7146 37.5 94.1688 37.5 94.6424C37.5 95.116 37.6881 95.5702 38.023 95.9051C38.3579 96.24 38.8121 96.4281 39.2857 96.4281H42.8571C43.3307 96.4281 43.7849 96.24 44.1198 95.9051C44.4547 95.5702 44.6429 95.116 44.6429 94.6424C44.6429 94.1688 44.4547 93.7146 44.1198 93.3797C43.7849 93.0448 43.3307 92.8567 42.8571 92.8567Z" fill="white"/>
<path d="M74.9997 98.2144H71.4283C70.9547 98.2144 70.5005 98.4025 70.1656 98.7374C69.8307 99.0723 69.6426 99.5265 69.6426 100C69.6426 100.474 69.8307 100.928 70.1656 101.263C70.5005 101.598 70.9547 101.786 71.4283 101.786H74.9997C75.4733 101.786 75.9275 101.598 76.2624 101.263C76.5973 100.928 76.7854 100.474 76.7854 100C76.7854 99.5265 76.5973 99.0723 76.2624 98.7374C75.9275 98.4025 75.4733 98.2144 74.9997 98.2144Z" fill="white"/>
<path d="M74.9997 92.8567H71.4283C70.9547 92.8567 70.5005 93.0448 70.1656 93.3797C69.8307 93.7146 69.6426 94.1688 69.6426 94.6424C69.6426 95.116 69.8307 95.5702 70.1656 95.9051C70.5005 96.24 70.9547 96.4281 71.4283 96.4281H74.9997C75.4733 96.4281 75.9275 96.24 76.2624 95.9051C76.5973 95.5702 76.7854 95.116 76.7854 94.6424C76.7854 94.1688 76.5973 93.7146 76.2624 93.3797C75.9275 93.0448 75.4733 92.8567 74.9997 92.8567Z" fill="white"/>
<path d="M98.2143 67.8571H83.9286V33.9286C83.9286 33.455 83.7404 33.0008 83.4055 32.6659C83.0707 32.331 82.6165 32.1429 82.1429 32.1429H67.8571V1.78571C67.8571 1.31211 67.669 0.85791 67.3341 0.523024C66.9992 0.188137 66.545 0 66.0714 0H33.9286C33.455 0 33.0008 0.188137 32.6659 0.523024C32.331 0.85791 32.1429 1.31211 32.1429 1.78571V32.1429H17.8571C17.3835 32.1429 16.9293 32.331 16.5945 32.6659C16.2596 33.0008 16.0714 33.455 16.0714 33.9286V67.8571H1.78571C1.31211 67.8571 0.85791 68.0453 0.523024 68.3802C0.188138 68.7151 0 69.1693 0 69.6429V105.357C0 105.831 0.188138 106.285 0.523024 106.62C0.85791 106.955 1.31211 107.143 1.78571 107.143H98.2143C98.6879 107.143 99.1421 106.955 99.477 106.62C99.8119 106.285 100 105.831 100 105.357V69.6429C100 69.1693 99.8119 68.7151 99.477 68.3802C99.1421 68.0453 98.6879 67.8571 98.2143 67.8571ZM80.3571 71.4286H83.9286V78.5714H80.3571V71.4286ZM80.3571 67.8571H51.7857V35.7143H60.7143V44.6429C60.7143 45.1165 60.9024 45.5707 61.2373 45.9056C61.5722 46.2404 62.0264 46.4286 62.5 46.4286H69.6429C70.1165 46.4286 70.5707 46.2404 70.9055 45.9056C71.2404 45.5707 71.4286 45.1165 71.4286 44.6429V35.7143H80.3571V67.8571ZM48.2143 71.4286H51.7857V78.5714H48.2143V71.4286ZM67.8571 35.7143V42.8571H64.2857V35.7143H67.8571ZM51.7857 3.57143V7.14286H48.2143V3.57143H51.7857ZM35.7143 3.57143H44.6429V8.92857C44.6429 9.40217 44.831 9.85638 45.1659 10.1913C45.5008 10.5261 45.955 10.7143 46.4286 10.7143H53.5714C54.045 10.7143 54.4992 10.5261 54.8341 10.1913C55.169 9.85638 55.3571 9.40217 55.3571 8.92857V3.57143H64.2857V32.1429H35.7143V3.57143ZM35.7143 35.7143V42.8571H32.1429V35.7143H35.7143ZM19.6429 35.7143H28.5714V44.6429C28.5714 45.1165 28.7596 45.5707 29.0945 45.9056C29.4293 46.2404 29.8835 46.4286 30.3571 46.4286H37.5C37.9736 46.4286 38.4278 46.2404 38.7627 45.9056C39.0976 45.5707 39.2857 45.1165 39.2857 44.6429V35.7143H48.2143V67.8571H19.6429V35.7143ZM19.6429 71.4286V78.5714H16.0714V71.4286H19.6429ZM3.57143 71.4286H12.5V80.3571C12.5 80.8307 12.6881 81.285 13.023 81.6198C13.3579 81.9547 13.8121 82.1429 14.2857 82.1429H21.4286C21.9022 82.1429 22.3564 81.9547 22.6913 81.6198C23.0261 81.285 23.2143 80.8307 23.2143 80.3571V71.4286H32.1429V103.571H3.57143V71.4286ZM35.7143 71.4286H44.6429V80.3571C44.6429 80.8307 44.831 81.285 45.1659 81.6198C45.5008 81.9547 45.955 82.1429 46.4286 82.1429H53.5714C54.045 82.1429 54.4992 81.9547 54.8341 81.6198C55.169 81.285 55.3571 80.8307 55.3571 80.3571V71.4286H64.2857V103.571H35.7143V71.4286ZM96.4286 103.571H67.8571V71.4286H76.7857V80.3571C76.7857 80.8307 76.9738 81.285 77.3087 81.6198C77.6436 81.9547 78.0978 82.1429 78.5714 82.1429H85.7143C86.1879 82.1429 86.6421 81.9547 86.977 81.6198C87.3119 81.285 87.5 80.8307 87.5 80.3571V71.4286H96.4286V103.571Z" fill="white"/>
<path d="M23.2125 66.0714H26.7839C27.2575 66.0714 27.7117 65.8833 28.0466 65.5484C28.3815 65.2135 28.5696 64.7593 28.5696 64.2857C28.5696 63.8121 28.3815 63.3579 28.0466 63.023C27.7117 62.6881 27.2575 62.5 26.7839 62.5H23.2125C22.7389 62.5 22.2847 62.6881 21.9498 63.023C21.6149 63.3579 21.4268 63.8121 21.4268 64.2857C21.4268 64.7593 21.6149 65.2135 21.9498 65.5484C22.2847 65.8833 22.7389 66.0714 23.2125 66.0714Z" fill="white"/>
<path d="M23.2125 60.7147H26.7839C27.2575 60.7147 27.7117 60.5266 28.0466 60.1917C28.3815 59.8568 28.5696 59.4026 28.5696 58.929C28.5696 58.4554 28.3815 58.0012 28.0466 57.6663C27.7117 57.3314 27.2575 57.1433 26.7839 57.1433H23.2125C22.7389 57.1433 22.2847 57.3314 21.9498 57.6663C21.6149 58.0012 21.4268 58.4554 21.4268 58.929C21.4268 59.4026 21.6149 59.8568 21.9498 60.1917C22.2847 60.5266 22.7389 60.7147 23.2125 60.7147Z" fill="white"/>
<path d="M58.9304 62.5H55.359C54.8854 62.5 54.4312 62.6881 54.0963 63.023C53.7614 63.3579 53.5732 63.8121 53.5732 64.2857C53.5732 64.7593 53.7614 65.2135 54.0963 65.5484C54.4312 65.8833 54.8854 66.0714 55.359 66.0714H58.9304C59.404 66.0714 59.8582 65.8833 60.1931 65.5484C60.528 65.2135 60.7161 64.7593 60.7161 64.2857C60.7161 63.8121 60.528 63.3579 60.1931 63.023C59.8582 62.6881 59.404 62.5 58.9304 62.5Z" fill="white"/>
<path d="M58.9304 57.1433H55.359C54.8854 57.1433 54.4312 57.3314 54.0963 57.6663C53.7614 58.0012 53.5732 58.4554 53.5732 58.929C53.5732 59.4026 53.7614 59.8568 54.0963 60.1917C54.4312 60.5266 54.8854 60.7147 55.359 60.7147H58.9304C59.404 60.7147 59.8582 60.5266 60.1931 60.1917C60.528 59.8568 60.7161 59.4026 60.7161 58.929C60.7161 58.4554 60.528 58.0012 60.1931 57.6663C59.8582 57.3314 59.404 57.1433 58.9304 57.1433Z" fill="white"/>
<path d="M39.2857 25.0001H42.8571C43.3307 25.0001 43.7849 24.812 44.1198 24.4771C44.4547 24.1422 44.6429 23.688 44.6429 23.2144C44.6429 22.7408 44.4547 22.2866 44.1198 21.9517C43.7849 21.6168 43.3307 21.4287 42.8571 21.4287H39.2857C38.8121 21.4287 38.3579 21.6168 38.023 21.9517C37.6881 22.2866 37.5 22.7408 37.5 23.2144C37.5 23.688 37.6881 24.1422 38.023 24.4771C38.3579 24.812 38.8121 25.0001 39.2857 25.0001Z" fill="white"/>
<path d="M39.2857 30.3571H42.8571C43.3307 30.3571 43.7849 30.1689 44.1198 29.8341C44.4547 29.4992 44.6429 29.045 44.6429 28.5714C44.6429 28.0978 44.4547 27.6436 44.1198 27.3087C43.7849 26.9738 43.3307 26.7856 42.8571 26.7856H39.2857C38.8121 26.7856 38.3579 26.9738 38.023 27.3087C37.6881 27.6436 37.5 28.0978 37.5 28.5714C37.5 29.045 37.6881 29.4992 38.023 29.8341C38.3579 30.1689 38.8121 30.3571 39.2857 30.3571Z" fill="white"/>
</svg>
