<svg width="49" height="42" viewBox="0 0 49 42" fill="none" xmlns="http://www.w3.org/2000/svg">
<path d="M3.73253 7.12057C4.9332 5.80403 6.23847 4.58684 7.63556 3.48095C7.67186 3.45259 7.71614 3.43635 7.76217 3.4345C7.8082 3.43266 7.85364 3.44529 7.89209 3.47066C7.93054 3.49603 7.96005 3.53283 7.97647 3.57587C7.99288 3.61891 7.99537 3.66601 7.98358 3.71054C7.2528 6.66638 5.77389 9.38452 3.68903 11.6036C3.58836 10.1104 3.6029 8.61159 3.73253 7.12057Z" fill="#FD9727"/>
<path d="M3.69416 11.6037C2.48616 10.1452 1.40592 8.58553 0.465398 6.94181C0.441474 6.90155 0.40532 6.86997 0.362203 6.85168C0.319086 6.8334 0.271256 6.82935 0.22568 6.84014C0.180104 6.85093 0.139162 6.87599 0.108817 6.91166C0.0784713 6.94734 0.0603071 6.99177 0.0569694 7.03848C-0.135597 8.77887 0.16223 10.5384 0.916821 12.1185C1.67141 13.6986 2.85271 15.0362 4.32735 15.9804C4.00612 14.5396 3.79445 13.0765 3.69416 11.6037Z" fill="#FD9727"/>
<path d="M4.3252 15.9683C5.08627 14.3987 5.97541 12.8944 6.98361 11.4708C7.01008 11.4336 7.04745 11.4056 7.09056 11.3906C7.13366 11.3756 7.18036 11.3744 7.22418 11.3872C7.268 11.3999 7.30676 11.426 7.3351 11.4617C7.36345 11.4975 7.37997 11.5412 7.38237 11.5868C7.56635 14.5541 6.95216 17.5166 5.60365 20.1662C5.07376 18.8006 4.64643 17.3975 4.3252 15.9683Z" fill="#FD9727"/>
<path d="M5.599 20.1734C4.02808 19.163 2.54247 18.0258 1.15704 16.773C1.12209 16.742 1.07815 16.7229 1.03159 16.7185C0.985043 16.7141 0.938304 16.7247 0.898162 16.7486C0.85802 16.7726 0.826565 16.8088 0.808363 16.8518C0.790162 16.8949 0.78616 16.9426 0.796941 16.9881C1.13737 18.6787 1.94127 20.2412 3.11878 21.5011C4.2963 22.761 5.80101 23.6686 7.46473 24.1223C6.7465 22.8537 6.1229 21.5339 5.599 20.1734Z" fill="#FD9727"/>
<path d="M7.46191 24.1247C7.73243 22.4146 8.1447 20.73 8.69446 19.0882C8.7099 19.0458 8.73801 19.0092 8.77498 18.9834C8.81194 18.9575 8.85598 18.9436 8.90109 18.9436C8.94621 18.9436 8.99023 18.9575 9.02719 18.9834C9.06416 19.0092 9.09228 19.0458 9.10773 19.0882C10.1393 21.8593 10.408 24.8564 9.88592 27.7667C8.98918 26.6142 8.17896 25.3969 7.46191 24.1247Z" fill="#FD9727"/>
<path d="M9.88866 27.762C8.09711 27.2539 6.34906 26.6033 4.66125 25.8165C4.6187 25.7972 4.57113 25.792 4.52541 25.8015C4.4797 25.8111 4.43821 25.835 4.40698 25.8698C4.37575 25.9045 4.35638 25.9483 4.3517 25.9948C4.34701 26.0412 4.35725 26.088 4.38091 26.1283C5.20107 27.6455 6.42578 28.9056 7.91898 29.7686C9.41219 30.6317 11.1154 31.0639 12.8395 31.0173C11.7761 30.0073 10.7897 28.9191 9.88866 27.762Z" fill="#FD9727"/>
<path d="M12.8389 31.0147C12.5897 29.2938 12.4879 27.5546 12.5344 25.8163C12.5361 25.7712 12.5518 25.7276 12.5791 25.6917C12.6065 25.6557 12.6443 25.6291 12.6873 25.6154C12.7303 25.6016 12.7765 25.6015 12.8197 25.615C12.8628 25.6285 12.9007 25.6549 12.9283 25.6907C14.7317 28.0618 15.8855 30.8623 16.2755 33.8157C15.0607 32.9704 13.9118 32.0341 12.8389 31.0147Z" fill="#FD9727"/>
<path d="M44.6871 7.12057C43.4865 5.804 42.1812 4.58681 40.7841 3.48095C40.7478 3.45259 40.7035 3.43635 40.6575 3.4345C40.6114 3.43266 40.566 3.44529 40.5275 3.47066C40.4891 3.49603 40.4595 3.53283 40.4431 3.57587C40.4267 3.61891 40.4243 3.66601 40.4361 3.71054C41.1653 6.66593 42.6426 9.38405 44.7257 11.6036C44.8281 10.1105 44.8152 8.61171 44.6871 7.12057Z" fill="#FD9727"/>
<path d="M44.723 11.6037C45.931 10.1452 47.0112 8.58551 47.9518 6.94181C47.9757 6.90155 48.0118 6.86997 48.055 6.85168C48.0981 6.8334 48.1459 6.82935 48.1915 6.84014C48.237 6.85093 48.278 6.87599 48.3084 6.91166C48.3387 6.94734 48.3569 6.99177 48.3602 7.03848C48.5528 8.77887 48.2549 10.5384 47.5003 12.1185C46.7457 13.6986 45.5645 15.0362 44.0898 15.9804C44.411 14.5396 44.6227 13.0765 44.723 11.6037Z" fill="#FD9727"/>
<path d="M44.09 15.9683C43.3289 14.3987 42.4398 12.8944 41.4316 11.4708C41.4051 11.4336 41.3677 11.4056 41.3246 11.3906C41.2815 11.3756 41.2348 11.3744 41.191 11.3872C41.1472 11.3999 41.1084 11.426 41.08 11.4617C41.0517 11.4975 41.0352 11.5412 41.0328 11.5868C40.849 14.5541 41.4631 17.5166 42.8115 20.1662C43.3415 18.8007 43.7688 17.3975 44.09 15.9683Z" fill="#FD9727"/>
<path d="M42.8237 20.1734C44.3947 19.163 45.8803 18.0258 47.2657 16.773C47.3007 16.742 47.3446 16.7229 47.3912 16.7185C47.4377 16.7141 47.4845 16.7247 47.5246 16.7486C47.5648 16.7726 47.5962 16.8088 47.6144 16.8518C47.6326 16.8949 47.6366 16.9426 47.6258 16.9881C47.2854 18.6787 46.4815 20.2412 45.304 21.5011C44.1265 22.761 42.6217 23.6686 40.958 24.1223C41.6762 22.8537 42.2998 21.5338 42.8237 20.1734Z" fill="#FD9727"/>
<path d="M40.958 24.1247C40.6875 22.4146 40.2752 20.73 39.7254 19.0882C39.71 19.0458 39.6818 19.0092 39.6449 18.9834C39.6079 18.9575 39.5639 18.9436 39.5188 18.9436C39.4736 18.9436 39.4297 18.9575 39.3927 18.9834C39.3558 19.0092 39.3276 19.0458 39.3122 19.0882C38.2806 21.8593 38.0118 24.8564 38.5339 27.7667C39.4307 26.6142 40.241 25.3969 40.958 24.1247Z" fill="#FD9727"/>
<path d="M38.5318 27.762C40.3234 27.2539 42.0714 26.6033 43.7592 25.8165C43.8018 25.7972 43.8494 25.792 43.8951 25.8015C43.9408 25.8111 43.9823 25.835 44.0135 25.8698C44.0448 25.9045 44.0642 25.9483 44.0688 25.9948C44.0735 26.0412 44.0633 26.088 44.0396 26.1283C43.2195 27.6455 41.9948 28.9056 40.5016 29.7686C39.0084 30.6317 37.3051 31.0639 35.5811 31.0173C36.6444 30.0072 37.6307 28.9191 38.5318 27.762Z" fill="#FD9727"/>
<path d="M35.5831 31.0147C35.8323 29.2938 35.9342 27.5547 35.8876 25.8163C35.8858 25.7712 35.8702 25.7276 35.8428 25.6917C35.8155 25.6557 35.7777 25.6291 35.7346 25.6154C35.6916 25.6016 35.6455 25.6015 35.6023 25.615C35.5592 25.6285 35.5213 25.6549 35.4937 25.6907C33.6902 28.0618 32.5365 30.8623 32.1465 33.8157C33.3613 32.9705 34.5101 32.0341 35.5831 31.0147Z" fill="#FD9727"/>
<path d="M45.3878 7.17859C45.3878 7.16409 45.3878 7.14959 45.3878 7.13509C45.2196 4.89454 44.8146 2.67811 44.1795 0.522889C44.1247 0.337331 43.9984 0.181144 43.8284 0.088686C43.6585 -0.00377228 43.4587 -0.0249249 43.2732 0.0298771C43.0876 0.0846791 42.9314 0.210945 42.839 0.380905C42.7465 0.550865 42.7254 0.750597 42.7802 0.936155C43.3825 2.97167 43.7697 5.06473 43.9354 7.18101C43.9354 7.19551 43.9354 7.21243 43.9354 7.22935C44.059 8.68035 44.0711 10.1387 43.9716 11.5916V11.5916C43.8734 13.0245 43.6674 14.4479 43.3554 15.8499C43.0453 17.2407 42.6325 18.6067 42.1204 19.9366V19.9366C41.6096 21.2618 41.0022 22.5478 40.303 23.784V23.784C39.603 25.0205 38.8131 26.2039 37.9395 27.3245C37.0615 28.4504 36.101 29.5095 35.0659 30.4929V30.4929C34.0215 31.4862 32.9034 32.3992 31.7212 33.2238H31.7091H31.697C30.4203 34.2832 28.9676 35.1102 27.4049 35.6671C26.2792 36.0617 25.2094 36.6002 24.222 37.2694C23.2347 36.6002 22.1648 36.0617 21.0392 35.6671C19.4745 35.117 18.0185 34.2966 16.7374 33.2431H16.7253H16.7132C15.5254 32.4137 14.4024 31.4951 13.354 30.4953V30.4953C12.3189 29.5119 11.3584 28.4529 10.4804 27.327V27.327C9.60681 26.2063 8.81683 25.023 8.11688 23.7864V23.7864C7.41763 22.5502 6.81019 21.2643 6.29949 19.939V19.939C5.78739 18.6091 5.37461 17.2432 5.06453 15.8523V15.8523C4.75243 14.4503 4.54643 13.0269 4.44827 11.594V11.594C4.34875 10.1411 4.36087 8.68276 4.48452 7.23176C4.48452 7.21484 4.48452 7.20034 4.48452 7.18342C4.65025 5.06715 5.03744 2.97409 5.63972 0.93857C5.69452 0.753012 5.67336 0.55328 5.58091 0.38332C5.48845 0.21336 5.33226 0.0870945 5.1467 0.0322925C4.96115 -0.0225095 4.76142 -0.00135687 4.59146 0.0911014C4.4215 0.18356 4.29523 0.339746 4.24043 0.525304C3.60533 2.68053 3.20028 4.89696 3.03206 7.1375C3.03206 7.152 3.03206 7.16651 3.03206 7.18101C2.90799 8.67964 2.89668 10.1855 2.99822 11.6858C3.10174 13.1903 3.31824 14.6848 3.64591 16.1568V16.1568C3.97102 17.6183 4.404 19.0538 4.94128 20.4513V20.4513C5.47708 21.8431 6.11439 23.1937 6.84809 24.4921V24.4921C7.58294 25.792 8.41252 27.0359 9.33008 28.2139C10.2523 29.3973 11.2612 30.5105 12.3486 31.5442V31.5442C13.4431 32.5839 14.6145 33.5396 15.8529 34.4032C17.2403 35.5458 18.8151 36.4395 20.5075 37.0447C21.3516 37.3424 22.1617 37.7288 22.9242 38.1974C22.1702 38.775 21.2954 39.5001 20.2658 40.4281C20.1216 40.5563 20.0342 40.7365 20.0229 40.9291C20.0116 41.1218 20.0772 41.311 20.2054 41.4552C20.3336 41.5994 20.5138 41.6868 20.7065 41.6981C20.8991 41.7095 21.0883 41.6438 21.2325 41.5156C22.4409 40.4402 23.3955 39.6547 24.1955 39.0626C24.9954 39.6547 25.9573 40.4402 27.1584 41.5156C27.3026 41.6438 27.4918 41.7095 27.6844 41.6981C27.8771 41.6868 28.0573 41.5994 28.1855 41.4552C28.3137 41.311 28.3793 41.1218 28.368 40.9291C28.3567 40.7365 28.2693 40.5563 28.1251 40.4281C27.0883 39.5001 26.2158 38.775 25.4667 38.1974C26.2292 37.7288 27.0393 37.3423 27.8834 37.0447C29.5758 36.4396 31.1507 35.5459 32.538 34.4032C33.7861 33.5431 34.9672 32.5898 36.0713 31.5514V31.5514C37.1587 30.5177 38.1676 29.4046 39.0898 28.2212V28.2212C40.0074 27.0432 40.837 25.7992 41.5718 24.4994V24.4994C42.3055 23.2009 42.9428 21.8504 43.4786 20.4586C44.0159 19.061 44.4489 17.6256 44.774 16.164C45.1017 14.6921 45.3182 13.1975 45.4217 11.6931V11.6931C45.5238 10.1895 45.5124 8.68043 45.3878 7.17859Z" fill="#FF6D3A"/>
</svg>
